<svg width="6" height="10" viewBox="0 0 6 10" fill="none" xmlns="http://www.w3.org/2000/svg">
<path d="M5.85499 4.47535L1.87339 0.493826C1.7813 0.401664 1.65837 0.350891 1.52729 0.350891C1.39622 0.350891 1.27328 0.401664 1.18119 0.493826L0.887978 0.78697C0.69718 0.977987 0.69718 1.28844 0.887978 1.47917L4.23142 4.82261L0.884268 8.16977C0.792179 8.26193 0.741333 8.38479 0.741333 8.5158C0.741333 8.64695 0.792179 8.7698 0.884268 8.86204L1.17749 9.15511C1.26965 9.24727 1.39251 9.29805 1.52358 9.29805C1.65466 9.29805 1.77759 9.24727 1.86968 9.15511L5.85499 5.16995C5.9473 5.0775 5.998 4.95406 5.99771 4.82283C5.998 4.6911 5.9473 4.56773 5.85499 4.47535Z" fill="#09274F"/>
</svg>
