<?xml version="1.0" encoding="UTF-8" standalone="no"?>
<svg
   xmlns:dc="http://purl.org/dc/elements/1.1/"
   xmlns:cc="http://creativecommons.org/ns#"
   xmlns:rdf="http://www.w3.org/1999/02/22-rdf-syntax-ns#"
   xmlns:svg="http://www.w3.org/2000/svg"
   xmlns="http://www.w3.org/2000/svg"
   xmlns:sodipodi="http://sodipodi.sourceforge.net/DTD/sodipodi-0.dtd"
   xmlns:inkscape="http://www.inkscape.org/namespaces/inkscape"
   inkscape:version="1.0 (1.0+r73+1)"
   sodipodi:docname="calendar.svg"
   id="svg8"
   version="1.1"
   fill="none"
   viewBox="0 0 8.7716188 7.8339238"
   height="7.8339238"
   width="8.7716188">
  <metadata
     id="metadata14">
    <rdf:RDF>
      <cc:Work
         rdf:about="">
        <dc:format>image/svg+xml</dc:format>
        <dc:type
           rdf:resource="http://purl.org/dc/dcmitype/StillImage" />
        <dc:title></dc:title>
      </cc:Work>
    </rdf:RDF>
  </metadata>
  <defs
     id="defs12" />
  <sodipodi:namedview
     inkscape:current-layer="svg8"
     inkscape:window-maximized="1"
     inkscape:window-y="0"
     inkscape:window-x="0"
     inkscape:cy="4.239014"
     inkscape:cx="1.2133362"
     inkscape:zoom="69.777778"
     fit-margin-bottom="0"
     fit-margin-right="0"
     fit-margin-left="0"
     fit-margin-top="0"
     showgrid="false"
     id="namedview10"
     inkscape:window-height="1135"
     inkscape:window-width="1920"
     inkscape:pageshadow="2"
     inkscape:pageopacity="0"
     guidetolerance="10"
     gridtolerance="10"
     objecttolerance="10"
     borderopacity="1"
     bordercolor="#666666"
     pagecolor="#ffffff" />
  <g
     transform="translate(-0.970581,-0.260986)"
     style="fill:#000000"
     id="g6"
     opacity="0.5">
    <path
       style="fill:#000000"
       id="path2"
       fill="white"
       d="m 9.7422,2.70261 c 0,-0.56649 0,-0.9628 0,-1.00039 0,-0.42072 -0.34582,-0.763005 -0.77088,-0.763005 H 8.86854 V 1.87178 c 0,0.14046 -0.11505,0.25433 -0.25696,0.25433 -0.14191,0 -0.25696,-0.11387 -0.25696,-0.25433 0,-0.28552 0,-1.072145 0,-1.356458 0,-0.140461 -0.11504,-0.254336 -0.25695,-0.254336 -0.14191,0 -0.25696,0.113875 -0.25696,0.254336 V 0.939215 H 6.12766 V 1.87178 c 0,0.14046 -0.11505,0.25433 -0.25696,0.25433 -0.14191,0 -0.25696,-0.11387 -0.25696,-0.25433 0,-0.28552 0,-1.072145 0,-1.356458 0,-0.140461 -0.11505,-0.254336 -0.25695,-0.254336 -0.14191,0 -0.25696,0.113875 -0.25696,0.254336 V 0.939215 H 3.38678 V 1.87178 c 0,0.14046 -0.11505,0.25433 -0.25696,0.25433 -0.14191,0 -0.25696,-0.11387 -0.25696,-0.25433 0,-0.28552 0,-1.072145 0,-1.356458 0,-0.140461 -0.11505,-0.254336 -0.25696,-0.254336 -0.14191,0 -0.25695,0.113875 -0.25695,0.254336 v 0.423893 h -0.6167 c -0.42506,0 -0.770875,0.342285 -0.770875,0.763005 v 1.00039 z" />
    <path
       style="fill:#000000"
       id="path4"
       fill="white"
       d="m 0.970581,3.21167 v 4.12024 c 0,0.42072 0.345809,0.763 0.770869,0.763 h 7.22908 c 0.42506,0 0.77087,-0.34228 0.77087,-0.763 0,-0.10894 0,-2.4893 0,-4.12024 -0.15991,0 -8.68236,0 -8.770819,0 z M 3.43737,6.73846 H 2.8892 c -0.14191,0 -0.25696,-0.11388 -0.25696,-0.25434 0,-0.14046 0.11505,-0.25433 0.25696,-0.25433 h 0.54817 c 0.14191,0 0.25696,0.11387 0.25696,0.25433 0,0.14046 -0.11505,0.25434 -0.25696,0.25434 z m 0,-1.08517 H 2.8892 c -0.14191,0 -0.25696,-0.11387 -0.25696,-0.25433 0,-0.14046 0.11505,-0.25434 0.25696,-0.25434 h 0.54817 c 0.14191,0 0.25696,0.11388 0.25696,0.25434 0,0.14046 -0.11505,0.25433 -0.25696,0.25433 z m 0,-1.08516 H 2.8892 c -0.14191,0 -0.25696,-0.11388 -0.25696,-0.25434 0,-0.14046 0.11505,-0.25433 0.25696,-0.25433 h 0.54817 c 0.14191,0 0.25696,0.11387 0.25696,0.25433 0,0.14046 -0.11505,0.25434 -0.25696,0.25434 z M 5.63008,6.73846 H 5.0819 c -0.14191,0 -0.25695,-0.11388 -0.25695,-0.25434 0,-0.14046 0.11504,-0.25433 0.25695,-0.25433 h 0.54818 c 0.14191,0 0.25696,0.11387 0.25696,0.25433 0,0.14046 -0.11505,0.25434 -0.25696,0.25434 z m 0,-1.08517 H 5.0819 c -0.14191,0 -0.25695,-0.11387 -0.25695,-0.25433 0,-0.14046 0.11504,-0.25434 0.25695,-0.25434 h 0.54818 c 0.14191,0 0.25696,0.11388 0.25696,0.25434 0,0.14046 -0.11505,0.25433 -0.25696,0.25433 z m 0,-1.08516 H 5.0819 c -0.14191,0 -0.25695,-0.11388 -0.25695,-0.25434 0,-0.14046 0.11504,-0.25433 0.25695,-0.25433 h 0.54818 c 0.14191,0 0.25696,0.11387 0.25696,0.25433 0,0.14046 -0.11505,0.25434 -0.25696,0.25434 z M 7.82279,6.73846 H 7.27461 c -0.14191,0 -0.25696,-0.11388 -0.25696,-0.25434 0,-0.14046 0.11505,-0.25433 0.25696,-0.25433 h 0.54818 c 0.1419,0 0.25695,0.11387 0.25695,0.25433 0,0.14046 -0.11505,0.25434 -0.25695,0.25434 z m 0,-1.08517 H 7.27461 c -0.14191,0 -0.25696,-0.11387 -0.25696,-0.25433 0,-0.14046 0.11505,-0.25434 0.25696,-0.25434 h 0.54818 c 0.1419,0 0.25695,0.11388 0.25695,0.25434 0,0.14046 -0.11505,0.25433 -0.25695,0.25433 z m 0,-1.08516 H 7.27461 c -0.14191,0 -0.25696,-0.11388 -0.25696,-0.25434 0,-0.14046 0.11505,-0.25433 0.25696,-0.25433 h 0.54818 c 0.1419,0 0.25695,0.11387 0.25695,0.25433 0,0.14046 -0.11505,0.25434 -0.25695,0.25434 z" />
  </g>
</svg>
