<svg width="11" height="10" viewBox="0 0 11 10" fill="none" xmlns="http://www.w3.org/2000/svg">
<g opacity="0.5">
<path d="M8.71289 0.0622559H6.18183C4.96079 0.0622559 3.96716 1.05588 3.96716 2.27693C3.96716 3.39076 4.79366 4.31518 5.86545 4.46905V5.44074C5.86545 5.56865 5.94238 5.68421 6.06072 5.73302C6.17743 5.78172 6.31431 5.75561 6.40554 5.66443L7.57836 4.4916H8.71289C9.93393 4.4916 10.9487 3.49797 10.9487 2.27693C10.9487 1.05588 9.93393 0.0622559 8.71289 0.0622559ZM6.18183 2.59327C6.00707 2.59327 5.86545 2.45161 5.86545 2.27689C5.86545 2.10216 6.00707 1.9605 6.18183 1.9605C6.35656 1.9605 6.49822 2.10216 6.49822 2.27689C6.49822 2.45161 6.35656 2.59327 6.18183 2.59327ZM7.44736 2.59327C7.27259 2.59327 7.13098 2.45161 7.13098 2.27689C7.13098 2.10216 7.27259 1.9605 7.44736 1.9605C7.62209 1.9605 7.76374 2.10216 7.76374 2.27689C7.76374 2.45161 7.62209 2.59327 7.44736 2.59327ZM8.71289 2.59327C8.53812 2.59327 8.39651 2.45161 8.39651 2.27689C8.39651 2.10216 8.53812 1.9605 8.71289 1.9605C8.88761 1.9605 9.02927 2.10216 9.02927 2.27689C9.02927 2.45161 8.88761 2.59327 8.71289 2.59327Z" fill="white"/>
<path d="M7.25782 9.55392C7.7812 9.55392 8.20697 9.12815 8.20697 8.60477V7.33924C8.20697 7.20299 8.11983 7.08217 7.99069 7.03923L6.09685 6.40647C6.00415 6.37527 5.90282 6.38947 5.82126 6.44323L5.01609 6.9799C4.16333 6.57331 3.15148 5.56143 2.74487 4.70868L3.28154 3.90351C3.3356 3.82224 3.3492 3.7206 3.3183 3.62792L2.68554 1.73408C2.64261 1.60495 2.5218 1.51782 2.38554 1.51782H1.09893C0.575546 1.51782 0.14978 1.93914 0.14978 2.46252C0.14978 6.1077 3.61264 9.55392 7.25782 9.55392Z" fill="white"/>
</g>
</svg>
