<svg width="25" height="22" viewBox="0 0 25 22" fill="none" xmlns="http://www.w3.org/2000/svg">
<path fill-rule="evenodd" clip-rule="evenodd" d="M8.3938 6.19588C8.3938 3.14861 10.8722 0.670166 13.9195 0.670166H19.3775C22.4155 0.670166 24.9487 3.13941 24.9487 6.19588C24.9487 9.25236 22.4155 11.7216 19.3775 11.7216H17.2417L14.9322 14.031C14.5202 14.4428 13.902 14.5623 13.371 14.3413C12.8343 14.1193 12.4873 13.5958 12.4873 13.0183V11.5333C10.1323 10.901 8.3938 8.749 8.3938 6.19588ZM13.9195 2.17017C11.7007 2.17017 9.8938 3.97704 9.8938 6.19588C9.8938 8.219 11.3962 9.90099 13.3438 10.1806L13.9873 10.273V12.8547L16.6203 10.2216H19.3775C21.6056 10.2216 23.4487 8.40552 23.4487 6.19588C23.4487 3.98625 21.6056 2.17017 19.3775 2.17017H13.9195ZM13.9195 6.26355C13.9569 6.26355 13.9873 6.23316 13.9873 6.19579C13.9873 6.15843 13.9569 6.12804 13.9195 6.12804C13.8821 6.12804 13.8518 6.15836 13.8518 6.19579C13.8518 6.23323 13.8821 6.26355 13.9195 6.26355ZM12.4873 6.19579C12.4873 5.40486 13.1284 4.76355 13.9195 4.76355C14.5583 4.76355 15.0994 5.18171 15.284 5.75922C15.4686 5.18174 16.0096 4.76355 16.6485 4.76355C17.2873 4.76355 17.8284 5.18172 18.013 5.75923C18.1976 5.18175 18.7386 4.76355 19.3775 4.76355C20.1685 4.76355 20.8097 5.4048 20.8097 6.19579C20.8097 6.98679 20.1685 7.62804 19.3775 7.62804C18.7386 7.62804 18.1976 7.20984 18.013 6.63236C17.8284 7.20987 17.2873 7.62804 16.6485 7.62804C16.0096 7.62804 15.4686 7.20984 15.284 6.63237C15.0994 7.20987 14.5583 7.62804 13.9195 7.62804C13.1284 7.62804 12.4873 6.98672 12.4873 6.19579ZM16.6485 6.26355C16.6859 6.26355 16.7163 6.23316 16.7163 6.19579C16.7163 6.15843 16.6859 6.12804 16.6485 6.12804C16.6111 6.12804 16.5807 6.15836 16.5807 6.19579C16.5807 6.23323 16.6111 6.26355 16.6485 6.26355ZM19.3775 6.26355C19.4149 6.26355 19.4452 6.23316 19.4452 6.19579C19.4452 6.15843 19.4149 6.12804 19.3775 6.12804C19.34 6.12804 19.3097 6.15836 19.3097 6.19579C19.3097 6.23323 19.34 6.26355 19.3775 6.26355Z" fill="white"/>
<path fill-rule="evenodd" clip-rule="evenodd" d="M13.7354 15.1007C13.5355 15.0334 13.317 15.0641 13.1411 15.18L11.4048 16.3373C9.56596 15.4605 7.384 13.2785 6.50718 11.4396L7.66445 9.70333C7.78103 9.52809 7.81036 9.3089 7.74373 9.10905L6.37924 5.02518C6.28668 4.74673 6.02615 4.55884 5.73233 4.55884H2.95787C1.82925 4.55884 0.911133 5.46736 0.911133 6.59598C0.911133 14.4564 8.37844 21.8879 16.2389 21.8879C17.3675 21.8879 18.2856 20.9698 18.2856 19.8411V17.1122C18.2856 16.8183 18.0978 16.5578 17.8193 16.4652L13.7354 15.1007ZM6.19417 9.20467L4.78664 11.3164L5.15322 12.0852C5.68676 13.2041 6.57063 14.3459 7.53458 15.3099C8.49852 16.2738 9.64032 17.1577 10.7593 17.6912L11.5281 18.0578L13.6398 16.6503L16.7856 17.7014V19.8411C16.7856 20.1413 16.5391 20.3879 16.2389 20.3879C12.7766 20.3879 9.30912 18.7418 6.68633 16.1273C4.06357 13.5128 2.41113 10.0553 2.41113 6.59598C2.41113 6.30496 2.64848 6.05884 2.95787 6.05884H5.14309L6.19417 9.20467Z" fill="white"/>
</svg>
