<svg width="16" height="12" viewBox="0 0 16 12" fill="none" xmlns="http://www.w3.org/2000/svg">
<path d="M13.8127 0.682617H2.15817C1.96686 0.682617 1.78776 0.72965 1.62573 0.807172L7.95783 7.13926L9.37706 5.77532C9.37706 5.77532 9.37717 5.77519 9.3772 5.77513C9.37722 5.77507 9.37733 5.77502 9.37733 5.77502L14.3453 0.807282C14.1833 0.729705 14.0041 0.682617 13.8127 0.682617Z" fill="#DDCEBC"/>
<path d="M14.9308 1.39355L10.2556 6.06847L14.9306 10.7435C15.0081 10.5814 15.0552 10.4023 15.0552 10.211V1.9258C15.0552 1.7346 15.0082 1.55553 14.9308 1.39355Z" fill="#DDCEBC"/>
<path d="M1.04008 1.39355C0.96256 1.55559 0.915527 1.73468 0.915527 1.92599V10.2112C0.915527 10.4024 0.962505 10.5815 1.03997 10.7435L5.71513 6.0686L1.04008 1.39355Z" fill="#DDCEBC"/>
<path d="M9.67036 6.65435L8.25093 8.01846C8.17001 8.09938 8.06402 8.13984 7.95805 8.13984C7.85208 8.13984 7.74606 8.09938 7.66516 8.01846L6.30097 6.6543L1.62573 11.3292C1.78779 11.4068 1.967 11.4539 2.15836 11.4539H13.8129C14.0042 11.4539 14.1833 11.4069 14.3453 11.3293L9.67036 6.65435Z" fill="#DDCEBC"/>
</svg>
