<svg width="7" height="14" viewBox="0 0 7 14" fill="none" xmlns="http://www.w3.org/2000/svg">
<path d="M0.488941 7.70174H1.9241V13.61C1.9241 13.7267 2.01862 13.8212 2.13527 13.8212H4.56863C4.68528 13.8212 4.7798 13.7267 4.7798 13.61V7.72957H6.42963C6.53691 7.72957 6.62716 7.64907 6.63941 7.54252L6.88998 5.36738C6.89687 5.30753 6.8779 5.2476 6.83787 5.20271C6.79779 5.15777 6.74043 5.13205 6.68025 5.13205H4.77988V3.76856C4.77988 3.35754 5.00119 3.14912 5.43772 3.14912C5.49993 3.14912 6.68025 3.14912 6.68025 3.14912C6.7969 3.14912 6.89142 3.05455 6.89142 2.93795V0.941371C6.89142 0.82472 6.7969 0.7302 6.68025 0.7302H4.96787C4.95579 0.729609 4.92897 0.728638 4.88944 0.728638C4.59232 0.728638 3.55957 0.786963 2.74378 1.53746C1.83988 2.36914 1.96553 3.36493 1.99556 3.53759V5.13201H0.488941C0.372291 5.13201 0.277771 5.22653 0.277771 5.34318V7.49053C0.277771 7.60718 0.372291 7.70174 0.488941 7.70174Z" fill="white"/>
</svg>
