<?xml version="1.0" encoding="UTF-8" standalone="no"?>
<svg
   xmlns:dc="http://purl.org/dc/elements/1.1/"
   xmlns:cc="http://creativecommons.org/ns#"
   xmlns:rdf="http://www.w3.org/1999/02/22-rdf-syntax-ns#"
   xmlns:svg="http://www.w3.org/2000/svg"
   xmlns="http://www.w3.org/2000/svg"
   xmlns:sodipodi="http://sodipodi.sourceforge.net/DTD/sodipodi-0.dtd"
   xmlns:inkscape="http://www.inkscape.org/namespaces/inkscape"
   inkscape:version="1.0 (1.0+r73+1)"
   sodipodi:docname="logo.svg"
   id="svg18"
   version="1.1"
   fill="none"
   viewBox="0 0 65.036125 45.094025"
   height="45.094025"
   width="65.036125">
  <metadata
     id="metadata24">
    <rdf:RDF>
      <cc:Work
         rdf:about="">
        <dc:format>image/svg+xml</dc:format>
        <dc:type
           rdf:resource="http://purl.org/dc/dcmitype/StillImage" />
        <dc:title></dc:title>
      </cc:Work>
    </rdf:RDF>
  </metadata>
  <defs
     id="defs22" />
  <sodipodi:namedview
     inkscape:current-layer="svg18"
     inkscape:window-maximized="1"
     inkscape:window-y="0"
     inkscape:window-x="0"
     inkscape:cy="22.662323"
     inkscape:cx="32.875122"
     inkscape:zoom="13.652174"
     fit-margin-bottom="0"
     fit-margin-right="0"
     fit-margin-left="0"
     fit-margin-top="0"
     showgrid="false"
     id="namedview20"
     inkscape:window-height="1135"
     inkscape:window-width="1920"
     inkscape:pageshadow="2"
     inkscape:pageopacity="0"
     guidetolerance="10"
     gridtolerance="10"
     objecttolerance="10"
     borderopacity="1"
     bordercolor="#666666"
     pagecolor="#ffffff" />
  <g
     transform="translate(-0.124878,-0.337677)"
     id="g34">
    <path
       d="M 28.0947,0.397614 V 1.69119 H 63.8675 V 44.1381 H 1.53438 V 26.2692 H 0.244293 V 45.4317 H 65.161 V 0.397614 Z"
       fill="white"
       id="path2"
       style="fill:#ff0000" />
    <path
       d="m 1.61774,12.4905 2.35641,3.8458 H 4.07904 L 6.43545,12.4905 H 7.757 l -2.72001,4.2618 2.87384,4.8072 H 6.56481 L 4.07904,17.2592 H 3.97066 L 1.48488,21.5595 H 0.124878 L 2.99872,16.7523 0.27871,12.4905 Z"
       fill="white"
       id="path4"
       style="fill:#ff0000" />
    <path
       d="m 9.63789,13.6676 c 0.36561,-0.4316 0.82081,-0.7784 1.33401,-1.0162 0.5132,-0.2379 1.0721,-0.3611 1.6377,-0.3611 0.5657,0 1.1245,0.1232 1.6377,0.3611 0.5132,0.2378 0.9684,0.5846 1.3341,1.0162 0.6756,0.9882 1.0371,2.1574 1.0371,3.3546 0,1.1971 -0.3615,2.3663 -1.0371,3.3545 -0.3657,0.4316 -0.8209,0.7784 -1.3341,1.0162 -0.5132,0.2379 -1.072,0.3611 -1.6377,0.3611 -0.5656,0 -1.1245,-0.1232 -1.6377,-0.3611 -0.5132,-0.2378 -0.9684,-0.5846 -1.33401,-1.0162 -0.67567,-0.9882 -1.03718,-2.1574 -1.03718,-3.3545 0,-1.1972 0.36151,-2.3664 1.03718,-3.3546 z m 0.81461,5.919 c 0.236,0.3577 0.5571,0.6513 0.9345,0.8544 0.3774,0.2032 0.7993,0.3095 1.2279,0.3095 0.4286,0 0.8504,-0.1063 1.2278,-0.3095 0.3774,-0.2031 0.6985,-0.4967 0.9345,-0.8544 0.4626,-0.7824 0.6873,-1.6826 0.6468,-2.5907 0.0386,-0.9034 -0.1861,-1.7985 -0.6468,-2.5766 -0.236,-0.3578 -0.5571,-0.6513 -0.9345,-0.8545 -0.3774,-0.2031 -0.7992,-0.3094 -1.2278,-0.3094 -0.4286,0 -0.8505,0.1063 -1.2279,0.3094 -0.3774,0.2032 -0.6985,0.4967 -0.9345,0.8545 -0.46084,0.778 -0.68555,1.6732 -0.6468,2.5766 -0.04068,0.9081 0.18407,1.8083 0.6468,2.5907 z"
       fill="white"
       id="path6"
       style="fill:#ff0000" />
    <path
       d="m 22.2661,12.4905 3.1221,9.0655 H 24.1436 L 21.49,13.3715 h -0.2343 l -2.6535,8.1845 h -1.2447 l 3.1221,-9.0655 z"
       fill="white"
       id="path8"
       style="fill:#ff0000" />
    <path
       d="m 31.4503,12.4905 3.1221,9.0655 h -1.2341 l -2.6536,-8.1845 h -0.2343 l -2.6536,8.1845 h -1.2446 l 3.1221,-9.0655 z"
       fill="white"
       id="path10"
       style="fill:#ff0000" />
    <path
       d="M 5.11811,0.337708 8.33108,9.40326 H 7.08645 L 6.15297,6.64479 H 2.34565 L 1.41217,9.40326 H 0.167542 L 3.38051,0.337708 Z M 2.67079,5.71481 H 5.8558 L 4.38042,1.21874 H 4.14617 Z"
       fill="white"
       id="path12"
       style="fill:#ff0000" />
    <path
       d="m 12.2428,0.337677 c 0.8426,0 1.7481,10e-7 2.5382,0.58386 0.3556,0.254903 0.6409,0.595713 0.8292,0.990643 0.1883,0.39493 0.2735,0.83112 0.2476,1.26788 0.0284,0.43368 -0.0528,0.86753 -0.2361,1.2616 -0.1833,0.39407 -0.4628,0.73569 -0.8127,0.99342 -0.8041,0.58386 -1.6957,0.58386 -2.5382,0.58386 H 10.8199 V 9.40323 H 9.65564 V 0.337677 Z M 10.7919,5.054 h 1.5278 c 0.493,0 1.1922,0 1.6712,-0.37409 0.2206,-0.18255 0.3944,-0.41517 0.5069,-0.6785 C 14.6103,3.73808 14.6583,3.45168 14.6377,3.16607 14.6583,2.88046 14.6103,2.59406 14.4978,2.33074 14.3853,2.06741 14.2115,1.83478 13.9909,1.65223 13.5119,1.30262 12.8127,1.27815 12.3197,1.27815 h -1.5278 z"
       fill="white"
       id="path14"
       style="fill:#ff0000" />
    <path
       d="M 23.4859,0.337677 V 1.32359 H 20.689 V 9.40323 H 19.5248 V 1.32359 H 16.7523 V 0.337677 Z"
       fill="white"
       id="path16"
       style="fill:#ff0000" />
  </g>
</svg>
