<?xml version="1.0" encoding="UTF-8" standalone="no"?>
<svg
   xmlns:dc="http://purl.org/dc/elements/1.1/"
   xmlns:cc="http://creativecommons.org/ns#"
   xmlns:rdf="http://www.w3.org/1999/02/22-rdf-syntax-ns#"
   xmlns:svg="http://www.w3.org/2000/svg"
   xmlns="http://www.w3.org/2000/svg"
   xmlns:sodipodi="http://sodipodi.sourceforge.net/DTD/sodipodi-0.dtd"
   xmlns:inkscape="http://www.inkscape.org/namespaces/inkscape"
   inkscape:version="1.0 (1.0+r73+1)"
   sodipodi:docname="logo-name.svg"
   id="svg20"
   version="1.1"
   fill="none"
   viewBox="0 0 130.83673 20.680708"
   height="20.680708"
   width="130.83673">
  <metadata
     id="metadata26">
    <rdf:RDF>
      <cc:Work
         rdf:about="">
        <dc:format>image/svg+xml</dc:format>
        <dc:type
           rdf:resource="http://purl.org/dc/dcmitype/StillImage" />
        <dc:title></dc:title>
      </cc:Work>
    </rdf:RDF>
  </metadata>
  <defs
     id="defs24" />
  <sodipodi:namedview
     inkscape:current-layer="svg20"
     inkscape:window-maximized="1"
     inkscape:window-y="0"
     inkscape:window-x="0"
     inkscape:cy="10.186707"
     inkscape:cx="65.336731"
     inkscape:zoom="11.633588"
     fit-margin-bottom="0"
     fit-margin-right="0"
     fit-margin-left="0"
     fit-margin-top="0"
     showgrid="false"
     id="namedview22"
     inkscape:window-height="1135"
     inkscape:window-width="1920"
     inkscape:pageshadow="2"
     inkscape:pageopacity="0"
     guidetolerance="10"
     gridtolerance="10"
     objecttolerance="10"
     borderopacity="1"
     bordercolor="#666666"
     pagecolor="#ffffff" />
  <g
     transform="translate(-0.163269,-0.313293)"
     style="fill:#000000"
     id="g37">
    <path
       style="fill:#000000"
       d="M 15.1968,0.591705 V 1.11962 H 13.9486 V 16.3874 h 1.2482 v 0.5279 H 8.86522 V 16.3874 H 9.97001 V 1.11962 H 5.39003 V 16.3874 h 1.10479 v 0.5279 H 0.163269 V 16.3874 H 1.4114 V 1.11962 H 0.163269 V 0.591705 Z"
       fill="#DDCEBC"
       id="path2" />
    <path
       style="fill:#000000"
       d="M 17.7385,1.11962 H 16.4904 V 0.591705 h 8.5621 c 2.5906,0 4.545,1.293575 4.545,4.170915 0,3.57308 -3.6221,4.17092 -6.426,4.17092 h -1.4614 v 7.45386 h 1.8215 v 0.5279 h -7.0377 v -0.5279 h 1.2481 z m 3.9821,7.19511 h 1.2691 c 1.8215,0 2.3005,-1.62922 2.3005,-3.54861 0,-2.18161 -1.0069,-3.643 -2.3494,-3.643 h -1.2237 z"
       fill="#DDCEBC"
       id="path4" />
    <path
       style="fill:#000000"
       d="M 42.8686,0.591705 V 5.76952 H 42.0051 C 41.7179,4.35204 41.1817,2.9967 40.4213,1.76641 40.2825,1.58158 40.1059,1.42835 39.9034,1.31685 39.7009,1.20535 39.477,1.13812 39.2466,1.11962 h -3.1885 v 6.81053 h 1.2481 C 37.507,7.94825 37.7088,7.90808 37.8874,7.81445 38.066,7.72082 38.2138,7.5777 38.3131,7.40223 38.6395,6.4925 38.8886,5.55687 39.0578,4.6053 h 0.6223 V 11.678 H 39.0578 C 38.9282,10.8308 38.6774,10.0066 38.3131,9.23072 38.2259,9.03277 38.0858,8.86273 37.9081,8.73935 37.7305,8.61597 37.5222,8.54404 37.3062,8.53149 h -1.2481 v 7.85591 h 3.3074 c 0.2596,-0.0052 0.5147,-0.0681 0.7469,-0.1842 0.2323,-0.1162 0.4357,-0.2825 0.5956,-0.4871 0.6468,-0.958 1.3181,-2.9962 1.5838,-4.6534 h 0.8635 v 5.8526 h -12.282 v -0.5279 h 1.2236 V 1.11962 H 30.8733 V 0.591705 Z"
       fill="#DDCEBC"
       id="path6" />
    <path
       style="fill:#000000"
       d="m 47.907,8.55375 c -0.1678,0 -0.3112,-0.02447 -0.3112,-0.38458 0,-0.3601 0.1434,-0.38458 0.3112,-0.38458 h 1.6537 c 2.1571,0 2.3249,-1.48587 2.3249,-3.59755 0,-2.23055 -0.6468,-3.286394 -2.734,-3.286394 -0.8636,0 -1.846,0.478974 -2.1571,1.048844 -0.6839,1.22435 -1.1389,2.56313 -1.3426,3.95067 H 44.7884 V 1.32018 c 1.1502,-0.769151 3.2619,-1.006887 4.7967,-1.006887 3.7654,0 6.0414,1.199187 6.0414,3.845777 0,2.79693 -2.1327,3.38079 -4.2199,3.95766 2.3005,0.38457 4.9156,1.67815 4.9156,4.43667 0,2.9962 -2.5662,4.5799 -6.8105,4.5799 -1.4404,0 -3.8143,-0.2412 -5.0345,-1.0069 V 11.494 h 0.8636 c 0.3846,1.5593 1.0803,3.4962 1.5837,4.1709 0.3497,0.5524 1.2482,0.9335 2.0977,0.9335 2.2306,0 3.2864,-1.2236 3.2864,-3.9332 0,-2.206 -0.6468,-4.10097 -2.6361,-4.10097 z"
       fill="#DDCEBC"
       id="path8" />
    <path
       style="fill:#000000"
       d="M 58.8181,1.11962 H 57.57 V 0.591705 h 6.3316 V 1.11962 H 62.7968 V 12.0521 L 67.3767,3.94802 V 1.11962 H 66.272 V 0.591705 h 6.3315 V 1.11962 H 71.3589 V 16.3874 h 1.2481 v 0.5279 h -6.3315 v -0.5279 h 1.1047 V 5.29054 l -4.5799,8.10416 v 2.9927 h 1.1048 v 0.5279 H 57.57 v -0.5279 h 1.2481 z"
       fill="#DDCEBC"
       id="path10" />
    <path
       style="fill:#000000"
       d="M 81.7917,0.593872 86.1304,16.3895 h 1.6292 V 20.994 H 86.8961 C 86.694,19.8552 86.356,18.7448 85.8892,17.6866 85.7702,17.4574 85.5913,17.2649 85.3715,17.1294 85.1517,16.9939 84.8992,16.9207 84.6411,16.9175 h -7.8384 c -0.2589,10e-5 -0.5126,0.0721 -0.733,0.2079 -0.2203,0.1358 -0.3987,0.3301 -0.5152,0.5612 -0.4579,1.0615 -0.7956,2.1708 -1.0069,3.3074 h -0.8635 v -4.6045 h 1.6292 L 79.6555,0.611349 Z M 75.9391,16.3895 h 6.1148 L 79.1206,4.76479 Z"
       fill="#DDCEBC"
       id="path12" />
    <path
       style="fill:#000000"
       d="M 100.856,0.591705 V 5.76952 H 99.9924 C 99.7052,4.35204 99.1689,2.9967 98.4086,1.76641 98.2698,1.58158 98.0932,1.42835 97.8907,1.31685 97.6882,1.20535 97.4643,1.13812 97.2339,1.11962 h -3.1885 v 6.81053 h 1.2481 c 0.2008,0.0181 0.4026,-0.02207 0.5812,-0.1157 C 96.0533,7.72082 96.2011,7.5777 96.3004,7.40223 96.6268,6.4925 96.8759,5.55687 97.0451,4.6053 h 0.6048 V 11.678 H 97.0276 C 96.898,10.8308 96.6472,10.0066 96.2829,9.23072 96.1957,9.03277 96.0556,8.86273 95.8779,8.73935 95.7003,8.61597 95.492,8.54404 95.276,8.53149 h -1.2481 v 7.85591 h 3.3074 c 0.2654,-0.0054 0.5262,-0.0711 0.7624,-0.1923 0.2363,-0.1211 0.4418,-0.2945 0.6011,-0.507 0.6468,-0.9579 1.3182,-2.9962 1.5842,-4.6534 h 0.863 v 5.8526 H 88.8396 v -0.4999 h 1.2237 V 1.11962 H 88.8396 V 0.591705 Z"
       fill="#DDCEBC"
       id="path14" />
    <path
       style="fill:#000000"
       d="M 108.792,0.591705 V 1.11962 h -1.105 v 6.81053 h 4.58 V 1.11962 h -1.104 V 0.591705 h 6.331 V 1.11962 H 116.25 V 16.3874 h 1.248 v 0.5279 h -6.332 v -0.5279 h 1.105 V 8.55246 h -4.58 v 7.83494 h 1.105 v 0.5279 h -6.335 v -0.5279 h 1.248 V 1.11962 h -1.248 V 0.591705 Z"
       fill="#DDCEBC"
       id="path16" />
    <path
       style="fill:#000000"
       d="m 122.847,1.11962 h -0.671 c -0.231,0.0185 -0.455,0.08573 -0.657,0.19723 -0.203,0.1115 -0.379,0.26473 -0.518,0.44956 -0.552,0.81461 -1.199,2.66058 -1.461,4.101 h -0.864 V 0.591705 H 131 V 5.76952 h -0.864 c -0.287,-1.41748 -0.823,-2.77282 -1.583,-4.00311 -0.139,-0.18483 -0.316,-0.33806 -0.518,-0.44956 -0.203,-0.1115 -0.427,-0.17873 -0.657,-0.19723 h -0.552 V 16.3874 h 1.821 v 0.5279 h -7.625 v -0.5279 h 1.821 z"
       fill="#DDCEBC"
       id="path18" />
  </g>
</svg>
