<svg width="10" height="10" viewBox="0 0 10 10" fill="none" xmlns="http://www.w3.org/2000/svg">
<g opacity="0.5">
<path d="M8.91117 3.26081C8.72732 3.07491 8.43505 3.06322 8.2374 3.22595C8.20882 3.24948 8.23096 3.22875 7.79578 3.66846L8.9254 4.80987L9.33138 4.40478C9.52767 4.20645 9.52767 3.88374 9.33138 3.6854L8.91117 3.26081Z" fill="white"/>
<path d="M5.47931 6.03066L4.81482 7.46942C4.77006 7.56636 4.79008 7.6812 4.86493 7.75682C4.93977 7.83246 5.05348 7.85267 5.14936 7.80745L6.57329 7.13602C6.62962 7.10945 6.45908 7.27074 8.56723 5.16723L7.43984 4.02808C5.34964 6.14006 5.50612 5.97262 5.47931 6.03066Z" fill="white"/>
<path d="M6.99717 7.44834C6.93552 7.50984 6.86447 7.55977 6.78598 7.59678L5.36206 8.26821C5.08205 8.40025 4.73997 8.34997 4.50878 8.11632C4.28508 7.8903 4.22465 7.54381 4.35842 7.25411L5.02293 5.81532C5.06025 5.73452 5.11083 5.66158 5.17324 5.5985L7.31393 3.43551V1.28034C7.31393 0.859619 6.97517 0.517334 6.55879 0.517334H1.64198C1.2256 0.517334 0.886841 0.859619 0.886841 1.28034V8.43565C0.886841 8.85637 1.2256 9.19866 1.64198 9.19866H6.55879C6.97517 9.19866 7.31393 8.85637 7.31393 8.43565V7.13225L6.99717 7.44834ZM2.22933 2.16204H5.98825C6.12727 2.16204 6.23997 2.27591 6.23997 2.41637C6.23997 2.55683 6.12727 2.67071 5.98825 2.67071H2.22933C2.09032 2.67071 1.97762 2.55683 1.97762 2.41637C1.97762 2.27591 2.09032 2.16204 2.22933 2.16204ZM2.22933 3.51849H5.18277C5.32178 3.51849 5.43448 3.63237 5.43448 3.77283C5.43448 3.91329 5.32178 4.02717 5.18277 4.02717H2.22933C2.09032 4.02717 1.97762 3.91329 1.97762 3.77283C1.97762 3.63237 2.09032 3.51849 2.22933 3.51849ZM1.97762 5.12929C1.97762 4.98883 2.09032 4.87495 2.22933 4.87495H4.37729C4.5163 4.87495 4.629 4.98883 4.629 5.12929C4.629 5.26975 4.5163 5.38362 4.37729 5.38362H2.22933C2.09032 5.38362 1.97762 5.26975 1.97762 5.12929Z" fill="white"/>
</g>
</svg>
