<svg width="46" height="46" viewBox="0 0 46 46" fill="none" xmlns="http://www.w3.org/2000/svg">
<path d="M45.185 7.48622C45.3797 7.48622 45.5664 7.40888 45.704 7.27122C45.8417 7.13355 45.919 6.94684 45.919 6.75215V3.81587C45.919 3.62119 45.8417 3.43447 45.704 3.29681C45.5664 3.15914 45.3797 3.0818 45.185 3.0818H26.7598C26.5914 2.25209 26.1412 1.50614 25.4857 0.970342C24.8301 0.434542 24.0095 0.141846 23.1629 0.141846C22.3162 0.141846 21.4956 0.434542 20.8401 0.970342C20.1846 1.50614 19.7344 2.25209 19.566 3.0818H1.14081C0.94612 3.0818 0.759407 3.15914 0.621742 3.29681C0.484077 3.43447 0.406738 3.62119 0.406738 3.81587V6.75215C0.406738 6.94684 0.484077 7.13355 0.621742 7.27122C0.759407 7.40888 0.94612 7.48622 1.14081 7.48622H1.87488V30.9764H1.14081C0.94612 30.9764 0.759407 31.0538 0.621742 31.1914C0.484077 31.3291 0.406738 31.5158 0.406738 31.7105V34.6468C0.406738 34.8415 0.484077 35.0282 0.621742 35.1659C0.759407 35.3035 0.94612 35.3809 1.14081 35.3809H19.566C19.7098 36.0862 20.0579 36.7337 20.5669 37.2427C21.076 37.7518 21.7235 38.0999 22.4288 38.2437V41.3856C21.939 41.5587 21.5262 41.8994 21.2634 42.3475C21.0005 42.7956 20.9046 43.3222 20.9924 43.8342C21.0802 44.3462 21.3463 44.8107 21.7435 45.1455C22.1406 45.4804 22.6434 45.664 23.1629 45.664C23.6824 45.664 24.1852 45.4804 24.5823 45.1455C24.9795 44.8107 25.2455 44.3462 25.3334 43.8342C25.4212 43.3222 25.3252 42.7956 25.0624 42.3475C24.7995 41.8994 24.3867 41.5587 23.897 41.3856V38.2437C24.6023 38.0999 25.2498 37.7518 25.7588 37.2427C26.2679 36.7337 26.616 36.0862 26.7598 35.3809H45.185C45.3797 35.3809 45.5664 35.3035 45.704 35.1659C45.8417 35.0282 45.919 34.8415 45.919 34.6468V31.7105C45.919 31.5158 45.8417 31.3291 45.704 31.1914C45.5664 31.0538 45.3797 30.9764 45.185 30.9764H44.4509V7.48622H45.185ZM23.1629 1.61366C23.6172 1.61494 24.0601 1.75672 24.4307 2.01956C24.8013 2.2824 25.0815 2.65344 25.233 3.0818H21.0928C21.2443 2.65344 21.5245 2.2824 21.8951 2.01956C22.2657 1.75672 22.7085 1.61494 23.1629 1.61366ZM1.87488 4.54994H44.4509V6.01808H1.87488V4.54994ZM23.1629 44.1897C23.0177 44.1897 22.8758 44.1466 22.7551 44.066C22.6343 43.9853 22.5403 43.8707 22.4847 43.7365C22.4291 43.6024 22.4146 43.4548 22.4429 43.3124C22.4713 43.17 22.5412 43.0392 22.6438 42.9366C22.7465 42.8339 22.8773 42.764 23.0197 42.7357C23.1621 42.7073 23.3097 42.7219 23.4438 42.7774C23.5779 42.833 23.6926 42.9271 23.7733 43.0478C23.8539 43.1685 23.897 43.3104 23.897 43.4556C23.897 43.6503 23.8196 43.837 23.682 43.9747C23.5443 44.1124 23.3576 44.1897 23.1629 44.1897ZM23.1629 36.849C22.7085 36.8477 22.2657 36.7059 21.8951 36.4431C21.5245 36.1803 21.2443 35.8092 21.0928 35.3809H25.233C25.0815 35.8092 24.8013 36.1803 24.4307 36.4431C24.0601 36.7059 23.6172 36.8477 23.1629 36.849ZM44.4509 33.9127H1.87488V32.4446H44.4509V33.9127ZM42.9828 30.9764H3.34302V7.48622H42.9828V30.9764Z" fill="#09274F"/>
<path d="M23.1629 28.0405C24.9051 28.0405 26.6082 27.5239 28.0568 26.556C29.5054 25.588 30.6345 24.2123 31.3012 22.6027C31.9679 20.9931 32.1424 19.2219 31.8025 17.5132C31.4626 15.8044 30.6236 14.2348 29.3917 13.0029C28.1597 11.771 26.5902 10.932 24.8814 10.5921C23.1727 10.2522 21.4015 10.4267 19.7919 11.0934C18.1823 11.7601 16.8065 12.8892 15.8386 14.3378C14.8707 15.7864 14.3541 17.4895 14.3541 19.2317C14.3541 21.5679 15.2821 23.8085 16.9341 25.4605C18.5861 27.1124 20.8266 28.0405 23.1629 28.0405ZM23.1629 11.891C24.6147 11.891 26.034 12.3215 27.2412 13.1281C28.4483 13.9347 29.3892 15.0812 29.9448 16.4225C30.5004 17.7639 30.6458 19.2398 30.3625 20.6638C30.0793 22.0877 29.3802 23.3957 28.3536 24.4223C27.3269 25.449 26.019 26.1481 24.595 26.4313C23.171 26.7146 21.6951 26.5692 20.3537 26.0136C19.0124 25.458 17.8659 24.5171 17.0593 23.31C16.2527 22.1028 15.8222 20.6835 15.8222 19.2317C15.8222 17.2848 16.5956 15.4177 17.9722 14.041C19.3489 12.6644 21.216 11.891 23.1629 11.891Z" fill="#09274F"/>
<path d="M20.6303 24.2891C20.7316 24.3441 20.8454 24.3719 20.9606 24.3699C21.1195 24.3699 21.274 24.3184 21.4011 24.2231L27.2736 19.8187C27.3648 19.7503 27.4388 19.6616 27.4898 19.5597C27.5407 19.4578 27.5673 19.3454 27.5673 19.2314C27.5673 19.1174 27.5407 19.005 27.4898 18.9031C27.4388 18.8012 27.3648 18.7125 27.2736 18.6441L21.4011 14.2397C21.2915 14.1581 21.1613 14.1086 21.0251 14.0969C20.8889 14.0852 20.7522 14.1118 20.6303 14.1737C20.5092 14.2347 20.4074 14.328 20.3362 14.4433C20.2649 14.5586 20.227 14.6914 20.2266 14.827V23.6358C20.227 23.7714 20.2649 23.9042 20.3362 24.0195C20.4074 24.1348 20.5092 24.2281 20.6303 24.2891ZM21.6947 16.2951L25.6073 19.2314L21.6947 22.1677V16.2951Z" fill="#09274F"/>
</svg>
