<svg width="46" height="46" viewBox="0 0 46 46" fill="none" xmlns="http://www.w3.org/2000/svg">
<path d="M41.7607 0.630859H4.03294C3.55655 0.630859 3.08482 0.724692 2.64469 0.906999C2.20456 1.08931 1.80465 1.35652 1.46779 1.69338C0.787473 2.3737 0.405273 3.29641 0.405273 4.25853V30.3777C0.405273 31.3399 0.787473 32.2626 1.46779 32.9429C1.80465 33.2798 2.20456 33.547 2.64469 33.7293C3.08482 33.9116 3.55655 34.0054 4.03294 34.0054H17.0926V39.8097H14.916C13.9538 39.8097 13.0311 40.1919 12.3508 40.8722C11.6705 41.5525 11.2883 42.4752 11.2883 43.4374V44.8884C11.2883 45.0808 11.3647 45.2654 11.5008 45.4015C11.6368 45.5375 11.8214 45.614 12.0138 45.614H33.7798C38.1838 45.614 41.7607 43.0093 41.7607 39.8097C41.7373 39.0832 41.5557 38.3707 41.2286 37.7216C40.9016 37.0725 40.4369 36.5025 39.8671 36.0514C40.4131 35.4829 40.7921 34.775 40.9626 34.0054H41.7607C42.7228 34.0054 43.6455 33.6232 44.3259 32.9429C45.0062 32.2626 45.3884 31.3399 45.3884 30.3777V4.25853C45.3884 3.78214 45.2945 3.31041 45.1122 2.87028C44.9299 2.43015 44.6627 2.03024 44.3259 1.69338C43.989 1.35652 43.5891 1.08931 43.149 0.906999C42.7088 0.724692 42.2371 0.630859 41.7607 0.630859ZM18.5436 34.0054H26.597C26.7676 34.775 27.1466 35.4829 27.6926 36.0514C27.1227 36.5025 26.6581 37.0725 26.331 37.7216C26.004 38.3707 25.8224 39.0832 25.799 39.8097H18.5436V34.0054ZM38.8586 29.6522C37.9796 29.0611 36.9938 28.6471 35.9564 28.4333V19.4947H38.133V18.0437H36.2104L36.3265 17.3181H38.133V15.8671H36.5731L36.6747 15.2576C36.6916 15.1537 36.6856 15.0474 36.6572 14.946C36.6288 14.8446 36.5787 14.7506 36.5104 14.6705C36.4421 14.5905 36.3571 14.5262 36.2614 14.4823C36.1658 14.4383 36.0617 14.4157 35.9564 14.416H31.6032C31.4973 14.4146 31.3924 14.4365 31.2959 14.48C31.1993 14.5234 31.1135 14.5875 31.0443 14.6677C30.9752 14.748 30.9245 14.8423 30.8957 14.9442C30.8669 15.0461 30.8607 15.1531 30.8777 15.2576L30.9793 15.8671H29.4266V17.3181H31.2332L31.3493 18.0437H29.4266V19.4947H31.6032V28.4333C30.5658 28.6471 29.58 29.0611 28.7011 29.6522H4.75848V4.98406H41.0352V29.6522H38.8586ZM32.4594 15.8671H35.1003L34.6142 18.7692H32.9455L32.4594 15.8671ZM33.0543 31.8288H34.5054V33.2799H33.0543V31.8288ZM33.0543 34.7309H34.5054V36.2836C34.0312 36.1481 33.5285 36.1481 33.0543 36.2836V34.7309ZM33.0543 30.3777V28.9267H34.5054V30.3777H33.0543ZM34.5054 27.4756H33.0543V26.0245H34.5054V27.4756ZM34.5054 24.5735H33.0543V23.1224H34.5054V24.5735ZM34.5054 21.6713H33.0543V20.2203H34.5054V21.6713ZM33.7798 37.6331C34.0668 37.6331 34.3474 37.7182 34.586 37.8776C34.8246 38.0371 35.0106 38.2637 35.1204 38.5289C35.2303 38.794 35.259 39.0858 35.203 39.3672C35.147 39.6487 35.0088 39.9073 34.8059 40.1102C34.603 40.3131 34.3444 40.4513 34.0629 40.5073C33.7814 40.5633 33.4897 40.5346 33.2245 40.4248C32.9594 40.3149 32.7328 40.129 32.5733 39.8903C32.4139 39.6517 32.3288 39.3711 32.3288 39.0842C32.3288 38.6993 32.4816 38.3302 32.7538 38.0581C33.0259 37.786 33.395 37.6331 33.7798 37.6331ZM12.7393 44.1629V43.4374C12.7393 42.8601 12.9687 42.3065 13.3769 41.8983C13.7851 41.4901 14.3387 41.2608 14.916 41.2608H26.0602C26.536 42.4738 27.4011 43.4945 28.5197 44.1629H12.7393ZM40.3096 39.8097C40.3096 42.2112 37.4075 44.1629 33.7798 44.1629C30.1522 44.1629 27.25 42.2112 27.25 39.8097C27.2905 39.1686 27.4927 38.5483 27.8378 38.0065C28.1829 37.4648 28.6596 37.0193 29.2235 36.7117C29.319 36.6479 29.398 36.5624 29.454 36.4622C29.51 36.3619 29.5414 36.2498 29.5457 36.1351C29.5499 36.0204 29.5269 35.9062 29.4784 35.8022C29.43 35.6981 29.3575 35.6069 29.267 35.5363C28.8931 35.2845 28.5821 34.95 28.3582 34.5587C28.1342 34.1674 28.0033 33.7299 27.9756 33.2799C27.9756 31.8288 29.4266 30.4793 31.6032 29.9207V37.176C31.2338 37.5949 30.9931 38.1115 30.91 38.6638C30.8269 39.216 30.9049 39.7806 31.1347 40.2896C31.3645 40.7987 31.7363 41.2306 32.2055 41.5336C32.6747 41.8366 33.2213 41.9977 33.7798 41.9977C34.3383 41.9977 34.885 41.8366 35.3542 41.5336C35.8234 41.2306 36.1952 40.7987 36.4249 40.2896C36.6547 39.7806 36.7328 39.216 36.6497 38.6638C36.5666 38.1115 36.3259 37.5949 35.9564 37.176V29.9207C38.133 30.4793 39.5841 31.8143 39.5841 33.2799C39.5564 33.7299 39.4254 34.1674 39.2015 34.5587C38.9776 34.95 38.6666 35.2845 38.2927 35.5363C38.2021 35.6069 38.1297 35.6981 38.0812 35.8022C38.0328 35.9062 38.0098 36.0204 38.014 36.1351C38.0183 36.2498 38.0497 36.3619 38.1057 36.4622C38.1617 36.5624 38.2407 36.6479 38.3362 36.7117C38.9001 37.0193 39.3768 37.4648 39.7219 38.0065C40.067 38.5483 40.2692 39.1686 40.3096 39.8097ZM43.9373 30.3777C43.9373 30.955 43.708 31.5086 43.2998 31.9168C42.8916 32.325 42.338 32.5543 41.7607 32.5543H40.9554C40.8523 32.0345 40.6449 31.5409 40.3459 31.1033H41.797C41.9894 31.1033 42.1739 31.0268 42.31 30.8908C42.4461 30.7547 42.5225 30.5702 42.5225 30.3777V4.25853C42.5225 4.06611 42.4461 3.88156 42.31 3.7455C42.1739 3.60943 41.9894 3.53299 41.797 3.53299H4.03294C3.84052 3.53299 3.65598 3.60943 3.51991 3.7455C3.38385 3.88156 3.30741 4.06611 3.30741 4.25853V30.3777C3.30741 30.5702 3.38385 30.7547 3.51991 30.8908C3.65598 31.0268 3.84052 31.1033 4.03294 31.1033H27.25C26.951 31.5409 26.7437 32.0345 26.6406 32.5543H4.03294C3.45567 32.5543 2.90205 32.325 2.49385 31.9168C2.08566 31.5086 1.85634 30.955 1.85634 30.3777V4.25853C1.85634 3.68126 2.08566 3.12763 2.49385 2.71944C2.90205 2.31125 3.45567 2.08193 4.03294 2.08193H41.7607C42.338 2.08193 42.8916 2.31125 43.2998 2.71944C43.708 3.12763 43.9373 3.68126 43.9373 4.25853V30.3777Z" fill="#09274F"/>
<path d="M21.2718 12.2395L15.4676 13.6906C15.3066 13.7303 15.1641 13.824 15.0637 13.956C14.9634 14.088 14.9113 14.2504 14.9162 14.4161V19.6255C14.4803 19.4714 14.0067 19.4601 13.564 19.5932C13.1212 19.7263 12.7324 19.9969 12.4538 20.3658C12.1751 20.7347 12.0212 21.1827 12.0143 21.645C12.0074 22.1072 12.1478 22.5597 12.4152 22.9368C12.6827 23.3139 13.0632 23.596 13.5018 23.7423C13.9403 23.8886 14.414 23.8915 14.8543 23.7506C15.2946 23.6096 15.6786 23.3321 15.9506 22.9583C16.2226 22.5845 16.3685 22.1338 16.3672 21.6715V17.8842L20.7204 16.7959V18.1744C20.2846 18.0203 19.811 18.009 19.3682 18.1421C18.9255 18.2752 18.5367 18.5458 18.258 18.9147C17.9794 19.2836 17.8255 19.7317 17.8186 20.1939C17.8116 20.6562 17.9521 21.1086 18.2195 21.4857C18.4869 21.8628 18.8675 22.1449 19.306 22.2912C19.7446 22.4376 20.2183 22.4404 20.6586 22.2995C21.0989 22.1585 21.4828 21.881 21.7549 21.5072C22.0269 21.1334 22.1728 20.6827 22.1715 20.2204V12.9651C22.1748 12.8532 22.1521 12.7421 22.1053 12.6404C22.0585 12.5388 21.9889 12.4493 21.9017 12.379C21.8146 12.3088 21.7124 12.2596 21.6031 12.2354C21.4939 12.2112 21.3805 12.2126 21.2718 12.2395ZM14.1906 22.397C14.0471 22.397 13.9069 22.3545 13.7875 22.2747C13.6682 22.195 13.5752 22.0817 13.5203 21.9491C13.4654 21.8166 13.451 21.6707 13.479 21.5299C13.507 21.3892 13.5761 21.2599 13.6776 21.1585C13.7791 21.057 13.9083 20.9879 14.0491 20.9599C14.1898 20.9319 14.3357 20.9463 14.4683 21.0012C14.6009 21.0561 14.7142 21.1491 14.7939 21.2684C14.8736 21.3877 14.9162 21.528 14.9162 21.6715C14.9162 21.8639 14.8397 22.0485 14.7037 22.1845C14.5676 22.3206 14.3831 22.397 14.1906 22.397ZM16.3672 16.3896V14.9821L20.7204 13.8938V15.3013L16.3672 16.3896ZM19.9949 20.946C19.8514 20.946 19.7111 20.9034 19.5918 20.8237C19.4725 20.744 19.3795 20.6306 19.3246 20.4981C19.2697 20.3655 19.2553 20.2196 19.2833 20.0789C19.3113 19.9381 19.3804 19.8089 19.4819 19.7074C19.5833 19.6059 19.7126 19.5368 19.8534 19.5088C19.9941 19.4808 20.14 19.4952 20.2726 19.5501C20.4051 19.605 20.5184 19.698 20.5982 19.8173C20.6779 19.9366 20.7204 20.0769 20.7204 20.2204C20.7204 20.4128 20.644 20.5974 20.5079 20.7334C20.3719 20.8695 20.1873 20.946 19.9949 20.946Z" fill="#09274F"/>
<path d="M9.11182 7.88599H10.5629V9.33705H9.11182V7.88599Z" fill="#09274F"/>
<path d="M9.11182 10.7886H10.5629V12.2396H9.11182V10.7886Z" fill="#09274F"/>
<path d="M7.66077 9.33716H9.11183V10.7882H7.66077V9.33716Z" fill="#09274F"/>
<path d="M10.5626 9.33716H12.0137V10.7882H10.5626V9.33716Z" fill="#09274F"/>
<path d="M25.7993 23.1223H27.2504V24.5734H25.7993V23.1223Z" fill="#09274F"/>
<path d="M25.7993 26.0247H27.2504V27.4757H25.7993V26.0247Z" fill="#09274F"/>
<path d="M24.3479 24.5732H25.799V26.0243H24.3479V24.5732Z" fill="#09274F"/>
<path d="M27.2502 24.5732H28.7013V26.0243H27.2502V24.5732Z" fill="#09274F"/>
</svg>
