<svg width="46" height="47" viewBox="0 0 46 47" fill="none" xmlns="http://www.w3.org/2000/svg">
<path d="M7.07663 6.48657C6.64614 6.48657 6.22531 6.61573 5.86737 6.85771C5.50943 7.09969 5.23045 7.44363 5.06571 7.84603C4.90097 8.24843 4.85786 8.69122 4.94185 9.11841C5.02583 9.5456 5.23313 9.93799 5.53754 10.246C5.84194 10.554 6.22977 10.7637 6.65199 10.8487C7.07421 10.9336 7.51185 10.89 7.90958 10.7234C8.3073 10.5567 8.64724 10.2744 8.8864 9.91226C9.12557 9.55011 9.25323 9.12434 9.25323 8.68878C9.25323 8.10472 9.02391 7.54458 8.61572 7.13158C8.20753 6.71859 7.6539 6.48657 7.07663 6.48657ZM7.07663 9.42285C6.93313 9.42285 6.79286 9.3798 6.67354 9.29914C6.55423 9.21848 6.46123 9.10383 6.40632 8.9697C6.35141 8.83556 6.33704 8.68797 6.36503 8.54557C6.39303 8.40317 6.46213 8.27238 6.5636 8.16972C6.66506 8.06705 6.79434 7.99714 6.93508 7.96882C7.07582 7.94049 7.2217 7.95503 7.35428 8.01059C7.48685 8.06615 7.60016 8.16024 7.67989 8.28095C7.75961 8.40167 7.80216 8.5436 7.80216 8.68878C7.80216 8.88347 7.72572 9.07018 7.58966 9.20785C7.45359 9.34551 7.26905 9.42285 7.07663 9.42285Z" fill="#09274F"/>
<path d="M7.0765 18.2317C6.64601 18.2317 6.22519 18.3608 5.86725 18.6028C5.50931 18.8448 5.23033 19.1887 5.06559 19.5911C4.90085 19.9935 4.85774 20.4363 4.94173 20.8635C5.02571 21.2907 5.23301 21.6831 5.53742 21.9911C5.84182 22.2991 6.22965 22.5088 6.65187 22.5938C7.07409 22.6788 7.51173 22.6352 7.90945 22.4685C8.30718 22.3018 8.64711 22.0195 8.88628 21.6574C9.12545 21.2952 9.25311 20.8695 9.25311 20.4339C9.25311 19.8498 9.02379 19.2897 8.61559 18.8767C8.2074 18.4637 7.65378 18.2317 7.0765 18.2317ZM7.0765 21.168C6.93301 21.168 6.79273 21.1249 6.67342 21.0443C6.55411 20.9636 6.46111 20.8489 6.4062 20.7148C6.35128 20.5807 6.33692 20.4331 6.36491 20.2907C6.39291 20.1483 6.46201 20.0175 6.56348 19.9148C6.66494 19.8122 6.79422 19.7423 6.93496 19.7139C7.0757 19.6856 7.22158 19.7001 7.35416 19.7557C7.48673 19.8113 7.60004 19.9054 7.67976 20.0261C7.75949 20.1468 7.80204 20.2887 7.80204 20.4339C7.80204 20.6286 7.7256 20.8153 7.58953 20.953C7.45347 21.0906 7.26893 21.168 7.0765 21.168Z" fill="#09274F"/>
<path d="M38.9995 6.48657C38.569 6.48657 38.1482 6.61573 37.7902 6.85771C37.4323 7.09969 37.1533 7.44363 36.9886 7.84603C36.8238 8.24843 36.7807 8.69122 36.8647 9.11841C36.9487 9.5456 37.156 9.93799 37.4604 10.246C37.7648 10.554 38.1526 10.7637 38.5748 10.8487C38.9971 10.9336 39.4347 10.89 39.8324 10.7234C40.2302 10.5567 40.5701 10.2744 40.8093 9.91226C41.0484 9.55011 41.1761 9.12434 41.1761 8.68878C41.1761 8.10472 40.9468 7.54458 40.5386 7.13158C40.1304 6.71859 39.5768 6.48657 38.9995 6.48657ZM38.9995 9.42285C38.856 9.42285 38.7157 9.3798 38.5964 9.29914C38.4771 9.21848 38.3841 9.10383 38.3292 8.9697C38.2743 8.83556 38.2599 8.68797 38.2879 8.54557C38.3159 8.40317 38.385 8.27238 38.4864 8.16972C38.5879 8.06705 38.7172 7.99714 38.8579 7.96882C38.9987 7.94049 39.1446 7.95503 39.2771 8.01059C39.4097 8.06615 39.523 8.16024 39.6027 8.28095C39.6825 8.40167 39.725 8.5436 39.725 8.68878C39.725 8.88347 39.6486 9.07018 39.5125 9.20785C39.3764 9.34551 39.1919 9.42285 38.9995 9.42285Z" fill="#09274F"/>
<path d="M38.9995 18.2317C38.569 18.2317 38.1482 18.3608 37.7902 18.6028C37.4323 18.8448 37.1533 19.1887 36.9886 19.5911C36.8238 19.9935 36.7807 20.4363 36.8647 20.8635C36.9487 21.2907 37.156 21.6831 37.4604 21.9911C37.7648 22.2991 38.1526 22.5088 38.5748 22.5938C38.9971 22.6788 39.4347 22.6352 39.8324 22.4685C40.2302 22.3018 40.5701 22.0195 40.8093 21.6574C41.0484 21.2952 41.1761 20.8695 41.1761 20.4339C41.1761 19.8498 40.9468 19.2897 40.5386 18.8767C40.1304 18.4637 39.5768 18.2317 38.9995 18.2317ZM38.9995 21.168C38.856 21.168 38.7157 21.1249 38.5964 21.0443C38.4771 20.9636 38.3841 20.8489 38.3292 20.7148C38.2743 20.5807 38.2599 20.4331 38.2879 20.2907C38.3159 20.1483 38.385 20.0175 38.4864 19.9148C38.5879 19.8122 38.7172 19.7423 38.8579 19.7139C38.9987 19.6856 39.1446 19.7001 39.2771 19.7557C39.4097 19.8113 39.523 19.9054 39.6027 20.0261C39.6825 20.1468 39.725 20.2887 39.725 20.4339C39.725 20.6286 39.6486 20.8153 39.5125 20.953C39.3764 21.0906 39.1919 21.168 38.9995 21.168Z" fill="#09274F"/>
<path d="M19.4757 15.3324L20.506 16.3674C20.837 16.0256 21.2321 15.7541 21.6681 15.5687C22.1041 15.3833 22.5724 15.2878 23.0453 15.2878C23.5183 15.2878 23.9865 15.3833 24.4226 15.5687C24.8586 15.7541 25.2537 16.0256 25.5847 16.3674L26.615 15.3324C26.1488 14.8561 25.594 14.478 24.9825 14.22C24.371 13.962 23.7151 13.8291 23.0526 13.8291C22.3901 13.8291 21.7341 13.962 21.1227 14.22C20.5112 14.478 19.9564 14.8561 19.4902 15.3324H19.4757Z" fill="#09274F"/>
<path d="M23.038 12.359C23.8875 12.3563 24.729 12.5257 25.5128 12.8573C26.2966 13.1888 27.0068 13.6759 27.6016 14.2896L28.6318 13.2619C27.9013 12.5113 27.0306 11.9152 26.0702 11.5083C25.1099 11.1014 24.0791 10.8918 23.038 10.8918C21.9968 10.8918 20.966 11.1014 20.0057 11.5083C19.0453 11.9152 18.1746 12.5113 17.4441 13.2619L18.4743 14.2896C19.0691 13.6759 19.7794 13.1888 20.5631 12.8573C21.3469 12.5257 22.1884 12.3563 23.038 12.359Z" fill="#09274F"/>
<path d="M44.8043 32.9128H44.0788V1.34784C44.0788 1.15315 44.0023 0.966438 43.8663 0.828773C43.7302 0.691109 43.5457 0.61377 43.3532 0.61377H34.6468C34.4544 0.61377 34.2699 0.691109 34.1338 0.828773C33.9977 0.966438 33.9213 1.15315 33.9213 1.34784V32.9128H33.1958V24.8381C33.1958 24.6434 33.1193 24.4567 32.9833 24.319C32.8472 24.1813 32.6627 24.104 32.4702 24.104H31.7447V21.1677C31.7447 20.973 31.6683 20.7863 31.5322 20.6486C31.3961 20.511 31.2116 20.4336 31.0192 20.4336H15.0574C14.865 20.4336 14.6805 20.511 14.5444 20.6486C14.4083 20.7863 14.3319 20.973 14.3319 21.1677V24.104H13.6064C13.4139 24.104 13.2294 24.1813 13.0933 24.319C12.9573 24.4567 12.8808 24.6434 12.8808 24.8381V32.9128H12.1553V1.34784C12.1553 1.15315 12.0789 0.966438 11.9428 0.828773C11.8067 0.691109 11.6222 0.61377 11.4298 0.61377H2.72335C2.53093 0.61377 2.34639 0.691109 2.21032 0.828773C2.07426 0.966438 1.99782 1.15315 1.99782 1.34784V32.9128H1.27229C1.07986 32.9128 0.895321 32.9902 0.759257 33.1278C0.623193 33.2655 0.546753 33.4522 0.546753 33.6469V38.0513C0.546753 38.246 0.623193 38.4327 0.759257 38.5704C0.895321 38.708 1.07986 38.7854 1.27229 38.7854H1.99782V46.1261H3.44889V38.7854H42.6277V46.1261H44.0788V38.7854H44.8043C44.9967 38.7854 45.1813 38.708 45.3173 38.5704C45.4534 38.4327 45.5299 38.246 45.5299 38.0513V33.6469C45.5299 33.4522 45.4534 33.2655 45.3173 33.1278C45.1813 32.9902 44.9967 32.9128 44.8043 32.9128ZM35.3724 2.08191H42.6277V5.09893C42.1548 4.61063 41.5904 4.22271 40.9675 3.95788C40.3446 3.69305 39.6757 3.55664 39 3.55664C38.3244 3.55664 37.6555 3.69305 37.0326 3.95788C36.4097 4.22271 35.8452 4.61063 35.3724 5.09893V2.08191ZM42.6277 8.68853C42.6277 9.41446 42.415 10.1241 42.0163 10.7277C41.6177 11.3313 41.0512 11.8017 40.3883 12.0795C39.7254 12.3573 38.996 12.43 38.2923 12.2884C37.5886 12.1467 36.9422 11.7972 36.4349 11.2839C35.9276 10.7706 35.5821 10.1166 35.4421 9.40458C35.3021 8.69261 35.3739 7.95462 35.6485 7.28395C35.9231 6.61329 36.3881 6.04005 36.9846 5.63675C37.5812 5.23345 38.2826 5.01819 39 5.01819C39.9622 5.01819 40.8849 5.40488 41.5652 6.09321C42.2455 6.78153 42.6277 7.7151 42.6277 8.68853ZM35.3724 12.2781C35.8452 12.7664 36.4097 13.1544 37.0326 13.4192C37.6555 13.684 38.3244 13.8204 39 13.8204C39.6757 13.8204 40.3446 13.684 40.9675 13.4192C41.5904 13.1544 42.1548 12.7664 42.6277 12.2781V16.844C42.1548 16.3557 41.5904 15.9678 40.9675 15.703C40.3446 15.4382 39.6757 15.3018 39 15.3018C38.3244 15.3018 37.6555 15.4382 37.0326 15.703C36.4097 15.9678 35.8452 16.3557 35.3724 16.844V12.2781ZM42.6277 20.4336C42.6277 21.1596 42.415 21.8692 42.0163 22.4728C41.6177 23.0764 41.0512 23.5468 40.3883 23.8246C39.7254 24.1024 38.996 24.1751 38.2923 24.0335C37.5886 23.8918 36.9422 23.5423 36.4349 23.029C35.9276 22.5157 35.5821 21.8617 35.4421 21.1497C35.3021 20.4377 35.3739 19.6997 35.6485 19.0291C35.9231 18.3584 36.3881 17.7852 36.9846 17.3819C37.5812 16.9786 38.2826 16.7633 39 16.7633C39.9622 16.7633 40.8849 17.15 41.5652 17.8383C42.2455 18.5266 42.6277 19.4602 42.6277 20.4336ZM39 25.5721C39.6762 25.5713 40.3453 25.4338 40.9683 25.1679C41.5912 24.9019 42.1554 24.5127 42.6277 24.0232V27.0403H35.3724V24.0232C35.8447 24.5127 36.4089 24.9019 37.0318 25.1679C37.6548 25.4338 38.3239 25.5713 39 25.5721ZM35.3724 28.5084H42.6277V32.9128H35.3724V28.5084ZM15.783 21.9018H30.2936V24.104H15.783V21.9018ZM14.3319 25.5721H31.7447V32.9128H14.3319V25.5721ZM3.44889 2.08191H10.7042V5.09893C10.2314 4.61063 9.66693 4.22271 9.04402 3.95788C8.42111 3.69305 7.75223 3.55664 7.07656 3.55664C6.40089 3.55664 5.73201 3.69305 5.10909 3.95788C4.48618 4.22271 3.92176 4.61063 3.44889 5.09893V2.08191ZM10.7042 8.68853C10.7042 9.41446 10.4915 10.1241 10.0929 10.7277C9.69424 11.3313 9.12768 11.8017 8.46481 12.0795C7.80194 12.3573 7.07253 12.43 6.36883 12.2884C5.66514 12.1467 5.01875 11.7972 4.51141 11.2839C4.00407 10.7706 3.65857 10.1166 3.51859 9.40458C3.37862 8.69261 3.45046 7.95462 3.72503 7.28395C3.9996 6.61329 4.46457 6.04005 5.06113 5.63675C5.6577 5.23345 6.35907 5.01819 7.07656 5.01819C8.03868 5.01819 8.96139 5.40488 9.64171 6.09321C10.322 6.78153 10.7042 7.7151 10.7042 8.68853ZM3.44889 12.2781C3.92176 12.7664 4.48618 13.1544 5.10909 13.4192C5.73201 13.684 6.40089 13.8204 7.07656 13.8204C7.75223 13.8204 8.42111 13.684 9.04402 13.4192C9.66693 13.1544 10.2314 12.7664 10.7042 12.2781V16.844C10.2314 16.3557 9.66693 15.9678 9.04402 15.703C8.42111 15.4382 7.75223 15.3018 7.07656 15.3018C6.40089 15.3018 5.73201 15.4382 5.10909 15.703C4.48618 15.9678 3.92176 16.3557 3.44889 16.844V12.2781ZM10.7042 20.4336C10.7042 21.1596 10.4915 21.8692 10.0929 22.4728C9.69424 23.0764 9.12768 23.5468 8.46481 23.8246C7.80194 24.1024 7.07253 24.1751 6.36883 24.0335C5.66514 23.8918 5.01875 23.5423 4.51141 23.029C4.00407 22.5157 3.65857 21.8617 3.51859 21.1497C3.37862 20.4377 3.45046 19.6997 3.72503 19.0291C3.9996 18.3584 4.46457 17.7852 5.06113 17.3819C5.6577 16.9786 6.35907 16.7633 7.07656 16.7633C8.03868 16.7633 8.96139 17.15 9.64171 17.8383C10.322 18.5266 10.7042 19.4602 10.7042 20.4336ZM7.07656 25.5721C7.75269 25.5713 8.42185 25.4338 9.04479 25.1679C9.66772 24.9019 10.2319 24.5127 10.7042 24.0232V27.0403H3.44889V24.0232C3.92122 24.5127 4.48539 24.9019 5.10833 25.1679C5.73127 25.4338 6.40042 25.5713 7.07656 25.5721ZM3.44889 28.5084H10.7042V32.9128H3.44889V28.5084ZM44.0788 37.3172H1.99782V34.381H44.0788V37.3172Z" fill="#09274F"/>
<path d="M20.8616 27.0408H16.5084C16.3159 27.0408 16.1314 27.1181 15.9953 27.2558C15.8593 27.3934 15.7828 27.5802 15.7828 27.7748V30.7111C15.7828 30.9058 15.8593 31.0925 15.9953 31.2302C16.1314 31.3678 16.3159 31.4452 16.5084 31.4452H20.8616C21.054 31.4452 21.2385 31.3678 21.3746 31.2302C21.5107 31.0925 21.5871 30.9058 21.5871 30.7111V27.7748C21.5871 27.5802 21.5107 27.3934 21.3746 27.2558C21.2385 27.1181 21.054 27.0408 20.8616 27.0408ZM20.136 29.977H17.2339V28.5089H20.136V29.977Z" fill="#09274F"/>
<path d="M29.568 27.0408H25.2148C25.0224 27.0408 24.8378 27.1181 24.7018 27.2558C24.5657 27.3934 24.4893 27.5802 24.4893 27.7748V30.7111C24.4893 30.9058 24.5657 31.0925 24.7018 31.2302C24.8378 31.3678 25.0224 31.4452 25.2148 31.4452H29.568C29.7604 31.4452 29.945 31.3678 30.081 31.2302C30.2171 31.0925 30.2935 30.9058 30.2935 30.7111V27.7748C30.2935 27.5802 30.2171 27.3934 30.081 27.2558C29.945 27.1181 29.7604 27.0408 29.568 27.0408ZM28.8425 29.977H25.9403V28.5089H28.8425V29.977Z" fill="#09274F"/>
</svg>
