<svg width="39" height="46" viewBox="0 0 39 46" fill="none" xmlns="http://www.w3.org/2000/svg">
<path d="M38.0872 23.7736H37.3531V21.5714C37.3531 21.3767 37.2757 21.19 37.1381 21.0523C37.0004 20.9147 36.8137 20.8373 36.619 20.8373H35.8849V18.6351C35.8816 18.5575 35.8668 18.4808 35.8409 18.4076L35.3858 17.0569C34.9837 15.8468 35.0787 14.5265 35.65 13.3865L35.7969 13.0856C35.8394 12.9909 35.8614 12.8884 35.8614 12.7846C35.8614 12.6808 35.8394 12.5783 35.7969 12.4836L34.3287 8.81328C34.2757 8.68371 34.1866 8.57202 34.0722 8.49138C33.9577 8.41074 33.8226 8.36451 33.6827 8.35815H32.2146C32.0676 8.35801 31.9239 8.40202 31.8022 8.48447C31.6805 8.56693 31.5863 8.68403 31.5319 8.82062L30.0638 12.491C30.0212 12.5856 29.9992 12.6882 29.9992 12.7919C29.9992 12.8957 30.0212 12.9983 30.0638 13.0929L30.2106 13.3939C30.5529 14.0572 30.7364 14.791 30.7465 15.5374C30.7484 16.0518 30.664 16.563 30.4969 17.0495L30.0491 18.4002C30.025 18.4762 30.0126 18.5554 30.0124 18.6351V20.8373H29.2783C29.0836 20.8373 28.8969 20.9147 28.7593 21.0523C28.6216 21.19 28.5442 21.3767 28.5442 21.5714V23.7736H27.8102C27.6155 23.7736 27.4288 23.851 27.2911 23.9886C27.1534 24.1263 27.0761 24.313 27.0761 24.5077V37.7209C27.0761 37.9156 27.1534 38.1023 27.2911 38.24C27.4288 38.3777 27.6155 38.455 27.8102 38.455H28.5442V40.6572C28.5442 40.8519 28.6216 41.0386 28.7593 41.1763C28.8969 41.3139 29.0836 41.3913 29.2783 41.3913H30.7465V45.7957H32.2146V41.3913H33.6827V45.7957H35.1509V41.3913H36.619C36.8137 41.3913 37.0004 41.3139 37.1381 41.1763C37.2757 41.0386 37.3531 40.8519 37.3531 40.6572V38.455H38.0872C38.2818 38.455 38.4686 38.3777 38.6062 38.24C38.7439 38.1023 38.8212 37.9156 38.8212 37.7209V24.5077C38.8212 24.313 38.7439 24.1263 38.6062 23.9886C38.4686 23.851 38.2818 23.7736 38.0872 23.7736ZM31.8696 13.4966H34.0277C33.5825 14.8006 33.5825 16.2154 34.0277 17.5193L34.1525 17.9011H31.7668L31.8916 17.5193C32.3368 16.2154 32.3368 14.8006 31.8916 13.4966H31.8696ZM32.7138 9.82629H33.1836L34.0645 12.0285H31.8622L32.7138 9.82629ZM31.4805 19.3692H34.4168V20.8373H31.4805V19.3692ZM30.0124 22.3055H35.8849V23.7736H30.0124V22.3055ZM28.5442 28.178H30.0124V34.0506H28.5442V28.178ZM35.8849 39.9231H30.0124V38.455H35.8849V39.9231ZM37.3531 36.9869H28.5442V35.5187H30.7465C30.9411 35.5187 31.1279 35.4414 31.2655 35.3037C31.4032 35.1661 31.4805 34.9793 31.4805 34.7847V27.444C31.4805 27.2493 31.4032 27.0626 31.2655 26.9249C31.1279 26.7872 30.9411 26.7099 30.7465 26.7099H28.5442V25.2418H37.3531V36.9869Z" fill="#09274F"/>
<path d="M11.6607 23.7736H10.9266V21.5714C10.9266 21.3767 10.8493 21.19 10.7116 21.0523C10.574 20.9147 10.3872 20.8373 10.1926 20.8373H9.45849V18.6351C9.45514 18.5575 9.4403 18.4808 9.41445 18.4076L8.95932 17.0569C8.55723 15.8468 8.65229 14.5265 9.22359 13.3865L9.3704 13.0856C9.41294 12.9909 9.43494 12.8884 9.43494 12.7846C9.43494 12.6808 9.41294 12.5783 9.3704 12.4836L7.90226 8.81328C7.8492 8.68371 7.7602 8.57202 7.64574 8.49138C7.53128 8.41074 7.39615 8.36451 7.25628 8.35815H5.78814C5.64113 8.35801 5.49745 8.40202 5.37573 8.48447C5.25401 8.56693 5.15986 8.68403 5.10546 8.82062L3.63732 12.491C3.59478 12.5856 3.57279 12.6882 3.57279 12.7919C3.57279 12.8957 3.59478 12.9983 3.63732 13.0929L3.78414 13.3939C4.12647 14.0572 4.30992 14.791 4.32001 15.5374C4.32191 16.0518 4.23755 16.563 4.07042 17.0495L3.62264 18.4002C3.59856 18.4762 3.58618 18.5554 3.58594 18.6351V20.8373H2.85187C2.65718 20.8373 2.47047 20.9147 2.3328 21.0523C2.19514 21.19 2.1178 21.3767 2.1178 21.5714V23.7736H1.38373C1.18904 23.7736 1.00233 23.851 0.864662 23.9886C0.726998 24.1263 0.649658 24.313 0.649658 24.5077V37.7209C0.649658 37.9156 0.726998 38.1023 0.864662 38.24C1.00233 38.3777 1.18904 38.455 1.38373 38.455H2.1178V40.6572C2.1178 40.8519 2.19514 41.0386 2.3328 41.1763C2.47047 41.3139 2.65718 41.3913 2.85187 41.3913H4.32001V45.7957H5.78814V41.3913H7.25628V45.7957H8.72442V41.3913H10.1926C10.3872 41.3913 10.574 41.3139 10.7116 41.1763C10.8493 41.0386 10.9266 40.8519 10.9266 40.6572V38.455H11.6607C11.8554 38.455 12.0421 38.3777 12.1798 38.24C12.3174 38.1023 12.3948 37.9156 12.3948 37.7209V24.5077C12.3948 24.313 12.3174 24.1263 12.1798 23.9886C12.0421 23.851 11.8554 23.7736 11.6607 23.7736ZM5.44313 13.4966H7.6013C7.15609 14.8006 7.15609 16.2154 7.6013 17.5193L7.72609 17.9011H5.34036L5.46515 17.5193C5.67812 16.8802 5.78717 16.211 5.78814 15.5374C5.78755 14.8427 5.67094 14.1529 5.44313 13.4966ZM6.28731 9.82629H6.75712L7.638 12.0285H5.43579L6.28731 9.82629ZM5.05408 19.3692H7.99035V20.8373H5.05408V19.3692ZM3.58594 22.3055H9.45849V23.7736H3.58594V22.3055ZM2.1178 28.178H3.58594V34.0506H2.1178V28.178ZM9.45849 39.9231H3.58594V38.455H9.45849V39.9231ZM10.9266 36.9869H2.1178V35.5187H4.32001C4.51469 35.5187 4.70141 35.4414 4.83907 35.3037C4.97674 35.1661 5.05408 34.9793 5.05408 34.7847V27.444C5.05408 27.2493 4.97674 27.0626 4.83907 26.9249C4.70141 26.7872 4.51469 26.7099 4.32001 26.7099H2.1178V25.2418H10.9266V36.9869Z" fill="#09274F"/>
<path d="M24.8739 15.6987H24.1398V13.4965C24.1398 13.3018 24.0625 13.1151 23.9248 12.9774C23.7872 12.8397 23.6004 12.7624 23.4058 12.7624H22.6717V10.5602C22.6683 10.4826 22.6535 10.4059 22.6276 10.3326L22.1725 8.98193C21.7704 7.77184 21.8655 6.45158 22.4368 5.31158L22.5836 5.01061C22.6261 4.91598 22.6481 4.8134 22.6481 4.70964C22.6481 4.60589 22.6261 4.50331 22.5836 4.40867L21.1155 0.738327C21.0624 0.608758 20.9734 0.497067 20.8589 0.416427C20.7445 0.335787 20.6093 0.289561 20.4695 0.283203H19.0013C18.8543 0.283061 18.7106 0.327068 18.5889 0.409523C18.4672 0.491978 18.3731 0.609082 18.3187 0.745667L16.8505 4.41602C16.808 4.51065 16.786 4.61323 16.786 4.71698C16.786 4.82074 16.808 4.92332 16.8505 5.01795L16.9973 5.31892C17.3397 5.98223 17.5231 6.71603 17.5332 7.4624C17.5351 7.97687 17.4507 8.48802 17.2836 8.97459L16.8358 10.3253C16.8118 10.4013 16.7994 10.4805 16.7991 10.5602V12.7624H16.0651C15.8704 12.7624 15.6837 12.8397 15.546 12.9774C15.4083 13.1151 15.331 13.3018 15.331 13.4965V15.6987H14.5969C14.4022 15.6987 14.2155 15.776 14.0779 15.9137C13.9402 16.0513 13.8629 16.238 13.8629 16.4327V29.646C13.8629 29.8407 13.9402 30.0274 14.0779 30.1651C14.2155 30.3027 14.4022 30.3801 14.5969 30.3801H15.331V32.5823C15.331 32.777 15.4083 32.9637 15.546 33.1013C15.6837 33.239 15.8704 33.3163 16.0651 33.3163H17.5332V45.7955H19.0013V33.3163H20.4695V45.7955H21.9376V33.3163H23.4058C23.6004 33.3163 23.7872 33.239 23.9248 33.1013C24.0625 32.9637 24.1398 32.777 24.1398 32.5823V30.3801H24.8739C25.0686 30.3801 25.2553 30.3027 25.393 30.1651C25.5306 30.0274 25.608 29.8407 25.608 29.646V16.4327C25.608 16.238 25.5306 16.0513 25.393 15.9137C25.2553 15.776 25.0686 15.6987 24.8739 15.6987ZM18.6563 5.42169H20.8145C20.3693 6.72564 20.3693 8.14044 20.8145 9.44439L20.9393 9.82611H18.5536L18.6783 9.44439C19.1236 8.14044 19.1236 6.72564 18.6783 5.42169H18.6563ZM19.5005 1.75134H19.9703L20.8512 3.95355H18.649L19.5005 1.75134ZM18.2673 11.2942H21.2035V12.7624H18.2673V11.2942ZM16.7991 14.2305H22.6717V15.6987H16.7991V14.2305ZM15.331 20.1031H16.7991V25.9756H15.331V20.1031ZM22.6717 31.8482H16.7991V30.3801H22.6717V31.8482ZM24.1398 28.9119H15.331V27.4438H17.5332C17.7279 27.4438 17.9146 27.3664 18.0523 27.2288C18.1899 27.0911 18.2673 26.9044 18.2673 26.7097V19.369C18.2673 19.1743 18.1899 18.9876 18.0523 18.8499C17.9146 18.7123 17.7279 18.6349 17.5332 18.6349H15.331V17.1668H24.1398V28.9119Z" fill="#09274F"/>
</svg>
