<svg width="45" height="46" viewBox="0 0 45 46" fill="none" xmlns="http://www.w3.org/2000/svg">
<path d="M9.58307 35.7993V38.7014C9.58307 38.8938 9.65861 39.0784 9.79307 39.2144C9.92754 39.3505 10.1099 39.4269 10.3001 39.4269H23.206C23.3962 39.4269 23.5786 39.3505 23.713 39.2144C23.8475 39.0784 23.923 38.8938 23.923 38.7014V35.7993C23.923 35.6068 23.8475 35.4223 23.713 35.2862C23.5786 35.1502 23.3962 35.0737 23.206 35.0737H10.3001C10.1099 35.0737 9.92754 35.1502 9.79307 35.2862C9.65861 35.4223 9.58307 35.6068 9.58307 35.7993ZM11.0171 36.5248H22.489V37.9759H11.0171V36.5248Z" fill="#09274F"/>
<path d="M27.5084 39.4269C27.9338 39.4269 28.3497 39.2993 28.7034 39.0601C29.0571 38.8209 29.3328 38.481 29.4956 38.0833C29.6584 37.6856 29.701 37.2479 29.618 36.8257C29.535 36.4035 29.3302 36.0156 29.0293 35.7112C28.7285 35.4068 28.3452 35.1995 27.928 35.1156C27.5107 35.0316 27.0782 35.0747 26.6852 35.2394C26.2922 35.4042 25.9562 35.6831 25.7199 36.0411C25.4835 36.399 25.3574 36.8198 25.3574 37.2503C25.3574 37.8276 25.584 38.3812 25.9874 38.7894C26.3908 39.1976 26.9379 39.4269 27.5084 39.4269ZM27.5084 36.5248C27.6502 36.5248 27.7888 36.5673 27.9067 36.6471C28.0246 36.7268 28.1165 36.8401 28.1708 36.9727C28.225 37.1053 28.2392 37.2511 28.2116 37.3919C28.1839 37.5326 28.1156 37.6619 28.0153 37.7634C27.9151 37.8648 27.7873 37.9339 27.6482 37.9619C27.5092 37.9899 27.365 37.9756 27.234 37.9206C27.103 37.8657 26.991 37.7727 26.9122 37.6534C26.8334 37.5341 26.7914 37.3938 26.7914 37.2503C26.7914 37.0579 26.8669 36.8734 27.0014 36.7373C27.1358 36.6012 27.3182 36.5248 27.5084 36.5248Z" fill="#09274F"/>
<path d="M33.2441 39.4269C33.6696 39.4269 34.0854 39.2993 34.4392 39.0601C34.7929 38.8209 35.0686 38.481 35.2314 38.0833C35.3942 37.6856 35.4368 37.2479 35.3538 36.8257C35.2708 36.4035 35.0659 36.0156 34.7651 35.7112C34.4643 35.4068 34.081 35.1995 33.6638 35.1156C33.2465 35.0316 32.814 35.0747 32.421 35.2394C32.0279 35.4042 31.692 35.6831 31.4556 36.0411C31.2193 36.399 31.0931 36.8198 31.0931 37.2503C31.0931 37.8276 31.3198 38.3812 31.7232 38.7894C32.1265 39.1976 32.6737 39.4269 33.2441 39.4269ZM33.2441 36.5248C33.3859 36.5248 33.5246 36.5673 33.6425 36.6471C33.7604 36.7268 33.8523 36.8401 33.9066 36.9727C33.9608 37.1053 33.975 37.2511 33.9474 37.3919C33.9197 37.5326 33.8514 37.6619 33.7511 37.7634C33.6509 37.8648 33.5231 37.9339 33.384 37.9619C33.2449 37.9899 33.1008 37.9756 32.9698 37.9206C32.8387 37.8657 32.7268 37.7727 32.648 37.6534C32.5692 37.5341 32.5271 37.3938 32.5271 37.2503C32.5271 37.0579 32.6027 36.8734 32.7371 36.7373C32.8716 36.6012 33.054 36.5248 33.2441 36.5248Z" fill="#09274F"/>
<path d="M22.4891 22.7393C21.9219 22.7393 21.3674 22.9095 20.8958 23.2284C20.4241 23.5472 20.0565 24.0005 19.8395 24.5308C19.6224 25.0611 19.5656 25.6446 19.6763 26.2076C19.7869 26.7705 20.0601 27.2876 20.4612 27.6935C20.8623 28.0994 21.3733 28.3758 21.9296 28.4878C22.486 28.5997 23.0626 28.5423 23.5867 28.3226C24.1107 28.103 24.5587 27.731 24.8738 27.2537C25.1889 26.7765 25.3571 26.2154 25.3571 25.6414C25.3571 24.8717 25.055 24.1335 24.5171 23.5893C23.9793 23.045 23.2498 22.7393 22.4891 22.7393ZM22.4891 27.0925C22.2055 27.0925 21.9283 27.0074 21.6925 26.8479C21.4566 26.6885 21.2728 26.4618 21.1643 26.1967C21.0558 25.9315 21.0274 25.6398 21.0827 25.3583C21.138 25.0768 21.2746 24.8183 21.4752 24.6153C21.6757 24.4124 21.9312 24.2742 22.2094 24.2182C22.4876 24.1622 22.7759 24.191 23.0379 24.3008C23.2999 24.4106 23.5239 24.5966 23.6815 24.8352C23.839 25.0738 23.9231 25.3544 23.9231 25.6414C23.9231 26.0262 23.7721 26.3953 23.5031 26.6675C23.2342 26.9396 22.8695 27.0925 22.4891 27.0925Z" fill="#09274F"/>
<path d="M43.999 0.247559H0.979083C0.788923 0.247559 0.606552 0.323999 0.472089 0.460063C0.337626 0.596126 0.262085 0.780669 0.262085 0.973092V27.0923C0.262085 27.2847 0.337626 27.4693 0.472089 27.6053C0.606552 27.7414 0.788923 27.8178 0.979083 27.8178H2.41308V29.9944C2.41308 30.1869 2.48862 30.3714 2.62308 30.5075C2.75755 30.6435 2.93992 30.72 3.13008 30.72H3.84708V35.7987C3.84708 36.376 4.0737 36.9296 4.47709 37.3378C4.88048 37.746 5.42759 37.9753 5.99807 37.9753H6.71507V41.603C6.71507 41.7954 6.79061 41.98 6.92507 42.116C7.05954 42.2521 7.24191 42.3285 7.43207 42.3285H9.58306V44.5051C9.58306 44.6975 9.6586 44.8821 9.79307 45.0182C9.92753 45.1542 10.1099 45.2307 10.3001 45.2307H14.602C14.7922 45.2307 14.9746 45.1542 15.109 45.0182C15.2435 44.8821 15.319 44.6975 15.319 44.5051V42.3285H29.659V44.5051C29.659 44.6975 29.7346 44.8821 29.869 45.0182C30.0035 45.1542 30.1858 45.2307 30.376 45.2307H34.678C34.8682 45.2307 35.0505 45.1542 35.185 45.0182C35.3195 44.8821 35.395 44.6975 35.395 44.5051V42.3285H37.546C37.7361 42.3285 37.9185 42.2521 38.053 42.116C38.1874 41.98 38.263 41.7954 38.263 41.603V37.9753H38.98C39.5505 37.9753 40.0976 37.746 40.501 37.3378C40.9044 36.9296 41.131 36.376 41.131 35.7987V30.72H41.848C42.0381 30.72 42.2205 30.6435 42.355 30.5075C42.4894 30.3714 42.565 30.1869 42.565 29.9944V27.8178H43.999C44.1891 27.8178 44.3715 27.7414 44.506 27.6053C44.6404 27.4693 44.716 27.2847 44.716 27.0923V0.973092C44.716 0.780669 44.6404 0.596126 44.506 0.460063C44.3715 0.323999 44.1891 0.247559 43.999 0.247559ZM5.28107 27.8178V29.2689H3.84708V27.8178H5.28107ZM6.71507 32.8966V36.5243H5.99807C5.80791 36.5243 5.62554 36.4478 5.49108 36.3117C5.35661 36.1757 5.28107 35.9911 5.28107 35.7987V30.72H5.99807C6.18823 30.72 6.3706 30.6435 6.50506 30.5075C6.63953 30.3714 6.71507 30.1869 6.71507 29.9944V27.8178H14.9104C15.4063 29.5818 16.4874 31.119 17.9719 32.171H7.43207C7.24191 32.171 7.05954 32.2475 6.92507 32.3836C6.79061 32.5196 6.71507 32.7042 6.71507 32.8966ZM22.489 17.6604C20.7739 17.6624 19.1062 18.2302 17.7386 19.2776C16.371 20.3249 15.3781 21.7949 14.9104 23.4646H4.56407V4.60076H40.414V23.4646H30.0677C29.5999 21.7949 28.607 20.3249 27.2395 19.2776C25.8719 18.2302 24.2042 17.6624 22.489 17.6604ZM28.942 25.6412C28.942 26.9327 28.5636 28.1952 27.8545 29.269C27.1454 30.3428 26.1376 31.1798 24.9585 31.674C23.7793 32.1682 22.4819 32.2975 21.2301 32.0456C19.9784 31.7936 18.8285 31.1717 17.9261 30.2585C17.0236 29.3453 16.409 28.1818 16.16 26.9151C15.911 25.6485 16.0388 24.3356 16.5272 23.1424C17.0157 21.9492 17.8428 20.9294 18.9039 20.2119C19.9651 19.4944 21.2127 19.1114 22.489 19.1114C24.2005 19.1114 25.8418 19.7994 27.052 21.024C28.2621 22.2486 28.942 23.9094 28.942 25.6412ZM13.885 43.7796H11.0171V42.3285H13.885V43.7796ZM33.961 43.7796H31.093V42.3285H33.961V43.7796ZM36.829 40.8775H8.14906V33.6221H36.829V40.8775ZM39.697 35.7987C39.697 35.9911 39.6214 36.1757 39.487 36.3117C39.3525 36.4478 39.1701 36.5243 38.98 36.5243H38.263V32.8966C38.263 32.7042 38.1874 32.5196 38.053 32.3836C37.9185 32.2475 37.7361 32.171 37.546 32.171H27.0061C28.4906 31.119 29.5718 29.5818 30.0677 27.8178H38.263V29.9944C38.263 30.1869 38.3385 30.3714 38.473 30.5075C38.6075 30.6435 38.7898 30.72 38.98 30.72H39.697V35.7987ZM41.131 29.2689H39.697V27.8178H41.131V29.2689ZM43.282 26.3668H30.376C30.376 26.1273 30.376 25.8879 30.376 25.6412C30.376 25.3946 30.376 25.1551 30.376 24.9157H41.131C41.3211 24.9157 41.5035 24.8393 41.638 24.7032C41.7724 24.5671 41.848 24.3826 41.848 24.1902V3.87523C41.848 3.6828 41.7724 3.49826 41.638 3.3622C41.5035 3.22613 41.3211 3.14969 41.131 3.14969H3.84708C3.65692 3.14969 3.47454 3.22613 3.34008 3.3622C3.20562 3.49826 3.13008 3.6828 3.13008 3.87523V24.1902C3.13008 24.3826 3.20562 24.5671 3.34008 24.7032C3.47454 24.8393 3.65692 24.9157 3.84708 24.9157H14.6379C14.6379 25.1551 14.602 25.3946 14.602 25.6412C14.602 25.8879 14.602 26.1273 14.6379 26.3668H1.69608V1.69863H43.282V26.3668Z" fill="#09274F"/>
<path d="M26.4541 11.2394L20.7182 7.61175C20.6095 7.54304 20.4847 7.50504 20.3566 7.50171C20.2285 7.49837 20.1019 7.52981 19.9899 7.59277C19.878 7.65572 19.7847 7.74789 19.7198 7.85969C19.655 7.97148 19.6209 8.09882 19.6212 8.22845V15.4838C19.6208 15.6143 19.6553 15.7425 19.7209 15.8549C19.7865 15.9672 19.8808 16.0596 19.994 16.1223C20.103 16.1859 20.2266 16.2195 20.3525 16.2195C20.4784 16.2195 20.602 16.1859 20.711 16.1223L26.447 12.4946C26.5507 12.4295 26.6364 12.3387 26.6957 12.2308C26.7551 12.1229 26.7863 12.0014 26.7863 11.8779C26.7863 11.7544 26.7551 11.6329 26.6957 11.525C26.6364 11.417 26.5507 11.3263 26.447 11.2612L26.4541 11.2394ZM21.0552 14.1778V9.53441L24.719 11.8561L21.0552 14.1778Z" fill="#09274F"/>
</svg>
