<svg width="15" height="12" viewBox="0 0 15 12" fill="none" xmlns="http://www.w3.org/2000/svg">
<path opacity="0.4" d="M5.83425 11.6336C5.26809 11.6336 4.68534 11.5878 4.0991 11.4959C3.06656 11.3338 2.02133 10.7937 1.72556 10.632L0.949829 10.2079L1.78969 9.93171C2.70776 9.62984 3.26623 9.44255 3.95756 9.14928C3.26533 8.81405 2.73183 8.21103 2.47502 7.4315L2.27964 6.83836L2.43986 6.86283C2.28793 6.70971 2.16796 6.55428 2.07497 6.41294C1.74424 5.9106 1.56913 5.29678 1.60639 4.77077L1.64315 4.25305L1.9531 4.37312C1.82235 4.12619 1.72786 3.86249 1.67232 3.5861C1.53697 2.91205 1.65024 2.19595 1.99136 1.56975L2.26136 1.0741L2.62245 1.50782C3.76447 2.87968 5.21095 3.69348 6.92773 3.93171C6.8576 3.44835 6.91015 2.98187 7.08405 2.56374C7.28652 2.07688 7.64672 1.66404 8.12538 1.36977C8.65699 1.04304 9.30166 0.884713 9.94065 0.923969C10.6186 0.965623 11.2341 1.21964 11.7229 1.65905C11.9617 1.59702 12.1376 1.53079 12.3753 1.44129C12.5184 1.38745 12.6806 1.32632 12.8835 1.2564L13.6315 0.998686L13.1438 2.39173C13.1759 2.38903 13.2091 2.38674 13.2437 2.38524L14.0424 2.34908L13.5704 2.99426C13.5433 3.03122 13.5364 3.0417 13.5268 3.05619C13.4888 3.11352 13.4414 3.18484 12.7934 4.05008C12.6312 4.26673 12.5502 4.54892 12.5653 4.84479C12.6227 5.96913 12.4848 6.9864 12.1551 7.86821C11.8432 8.70248 11.36 9.41828 10.7189 9.99573C9.92556 10.7101 8.914 11.1993 7.71215 11.4494C7.12261 11.5721 6.48952 11.6336 5.83425 11.6336Z" fill="white"/>
</svg>
