<svg width="9" height="10" viewBox="0 0 9 10" fill="none" xmlns="http://www.w3.org/2000/svg">
<path opacity="0.5" d="M8.73604 8.8627L8.52124 7.99457C8.41933 7.57342 8.11036 7.23473 7.70322 7.09786L6.12805 6.56757C5.74392 6.40589 5.56816 5.78083 5.5302 5.54354C5.82289 5.29761 6.01122 4.94771 6.05645 4.5658C6.04999 4.50057 6.06522 4.43502 6.09976 4.37951C6.15557 4.36538 6.20127 4.325 6.22254 4.27099C6.32561 4.01883 6.3903 3.75235 6.41443 3.48064C6.41448 3.46587 6.41269 3.45117 6.40906 3.43687C6.38342 3.33129 6.32199 3.23812 6.23543 3.17353V2.2146C6.23543 1.63187 6.0593 1.39278 5.87385 1.25423C5.83845 0.973547 5.54095 0.406006 4.4455 0.406006C3.4736 0.445547 2.69466 1.2326 2.65553 2.21462V3.17355C2.56897 3.23813 2.50754 3.33131 2.48189 3.43689C2.47827 3.45118 2.47647 3.4659 2.47652 3.48065C2.50062 3.7525 2.56531 4.0191 2.66841 4.27138C2.68392 4.3225 2.72458 4.36182 2.77581 4.3752C2.79587 4.38532 2.83345 4.43779 2.83345 4.56583C2.87895 4.94883 3.06837 5.29953 3.36257 5.54538C3.32498 5.7823 3.15028 6.407 2.7769 6.56471L1.18777 7.09788C0.780948 7.23473 0.47218 7.57308 0.370118 7.99387L0.155322 8.862C0.131007 8.95882 0.188968 9.05723 0.284787 9.0818C0.299101 9.08548 0.313818 9.08735 0.328585 9.08736H8.56242C8.66128 9.08733 8.74139 9.00633 8.74137 8.90645C8.74136 8.89168 8.73956 8.87699 8.73604 8.8627Z" fill="white"/>
</svg>
