<svg width="17" height="10" viewBox="0 0 17 10" fill="none" xmlns="http://www.w3.org/2000/svg">
<g opacity="0.4">
<path d="M16.3803 8.83217C16.3363 8.76063 16.0642 8.18626 14.7549 7.00574C13.3841 5.76957 13.5683 5.9703 15.2193 3.83284C16.2248 2.53108 16.6268 1.73612 16.501 1.39627C16.3813 1.07232 15.6418 1.15778 15.6418 1.15778L13.1826 1.17169C13.1826 1.17169 13.0005 1.14784 12.8645 1.22635C12.7325 1.30385 12.6476 1.48272 12.6476 1.48272C12.6476 1.48272 12.2579 2.49034 11.7382 3.34691C10.6427 5.15447 10.2038 5.24986 10.0248 5.13757C9.6085 4.87623 9.71284 4.08623 9.71284 3.52578C9.71284 1.77388 9.98596 1.0435 9.17989 0.8547C8.91188 0.792096 8.71548 0.750361 8.03114 0.743405C7.15346 0.734461 6.40979 0.746386 5.98936 0.946121C5.70908 1.07928 5.49324 1.3764 5.6252 1.39329C5.78784 1.41416 6.1561 1.48968 6.35148 1.74804C6.60414 2.08093 6.59494 2.83019 6.59494 2.83019C6.59494 2.83019 6.74019 4.89213 6.25635 5.1485C5.92389 5.32439 5.46869 4.96566 4.49179 3.32505C3.99157 2.48537 3.61309 1.55626 3.61309 1.55626C3.61309 1.55626 3.54046 1.38335 3.41055 1.29094C3.25302 1.17865 3.03206 1.14287 3.03206 1.14287L0.693638 1.15679C0.693638 1.15679 0.342772 1.16672 0.213882 1.31479C0.0993138 1.44695 0.204676 1.71922 0.204676 1.71922C0.204676 1.71922 2.03573 5.87987 4.10819 7.97759C6.00982 9.90041 8.16821 9.77421 8.16821 9.77421H9.14613C9.14613 9.77421 9.44176 9.74241 9.59213 9.58441C9.73125 9.43933 9.72614 9.16705 9.72614 9.16705C9.72614 9.16705 9.7067 7.89213 10.3164 7.70432C10.9168 7.51949 11.6881 8.93651 12.5054 9.48206C13.1233 9.89444 13.5928 9.80402 13.5928 9.80402L15.7788 9.77421C15.7788 9.77421 16.9225 9.70564 16.3803 8.83217Z" fill="white"/>
</g>
</svg>
