<svg viewBox="0 0 16 15" fill="none" xmlns="http://www.w3.org/2000/svg">
<path d="M15.1507 11.2147L9.83225 1.42357C9.43084 0.747822 8.7219 0.344238 7.93588 0.344238C7.14986 0.344238 6.44092 0.747822 6.03951 1.42357C6.03648 1.42874 6.03393 1.43391 6.0309 1.43908L0.730149 11.1992C0.320133 11.8892 0.312378 12.7178 0.70903 13.4156C1.10659 14.1138 1.82282 14.5302 2.62608 14.5302H13.2163C14.0196 14.5302 14.7652 14.1138 15.1628 13.4156C15.5594 12.7179 15.5517 11.8892 15.1507 11.2147ZM7.05381 4.82739C7.05381 4.34022 7.44873 3.94533 7.93588 3.94533C8.42306 3.94533 8.81795 4.34025 8.81795 4.82739V8.3557C8.81795 8.84282 8.42303 9.23776 7.93588 9.23776C7.44873 9.23776 7.05381 8.84279 7.05381 8.3557V4.82739ZM7.93588 12.7661C7.20629 12.7661 6.61275 12.1726 6.61275 11.443C6.61275 10.7134 7.20626 10.1199 7.93588 10.1199C8.66547 10.1199 9.25898 10.7134 9.25898 11.443C9.25901 12.1726 8.6655 12.7661 7.93588 12.7661Z" fill="#EB5757"/>
</svg>
